<svg width="132" height="150" viewBox="0 0 132 150" fill="none" xmlns="http://www.w3.org/2000/svg">
<path d="M66 75C86.8313 75 103.714 58.2129 103.714 37.5C103.714 16.7871 86.8313 0 66 0C45.1688 0 28.2857 16.7871 28.2857 37.5C28.2857 58.2129 45.1688 75 66 75ZM94.2268 84.5508L80.1429 140.625L70.7143 100.781L80.1429 84.375H51.8571L61.2857 100.781L51.8571 140.625L37.7732 84.5508C16.7652 85.5469 0 102.627 0 123.75V135.938C0 143.701 6.33482 150 14.1429 150H117.857C125.665 150 132 143.701 132 135.938V123.75C132 102.627 115.235 85.5469 94.2268 84.5508Z" fill="#297880"/>
</svg>
