<svg xmlns="http://www.w3.org/2000/svg" width="149" height="149" fill="none" viewBox="0 0 149 149"><path fill="#297880" fill-rule="evenodd" d="M98.2255 1.53628C98.7112 1.0493 99.2883 0.662935 99.9236 0.399316C100.559 0.135696 101.24 0 101.928 0C102.616 0 103.297 0.135696 103.932 0.399316C104.567 0.662935 105.144 1.0493 105.63 1.53628L147.464 43.37C147.951 43.8557 148.337 44.4328 148.601 45.0681C148.864 45.7033 149 46.3844 149 47.0722C149 47.7601 148.864 48.4411 148.601 49.0764C148.337 49.7117 147.951 50.2888 147.464 50.7745L127.572 70.6664L118.902 105.315C118.242 107.953 116.909 110.375 115.031 112.342C113.154 114.31 110.797 115.755 108.192 116.537L0 149L32.4629 40.7972C33.2454 38.1958 34.69 35.8421 36.6553 33.9666C38.6206 32.0912 41.0392 30.7582 43.6744 30.0982L78.3231 21.4387L98.2255 1.53628ZM79.4003 31.9494L46.2157 40.2429C45.3349 40.4627 44.5264 40.9082 43.8699 41.5353C43.2134 42.1625 42.7315 42.9497 42.4716 43.8197L15.5935 133.396L105.191 106.518C106.056 106.256 106.838 105.774 107.461 105.12C108.084 104.465 108.527 103.661 108.747 102.784L117.051 69.5892L79.4003 31.9389V31.9494Z" clip-rule="evenodd"/><path fill="#297880" fill-rule="evenodd" d="M16.5027 133.124L70.5518 88.9061C72.6203 88.9061 74.6423 88.2927 76.3622 87.1435C78.0821 85.9944 79.4225 84.361 80.2141 82.45C81.0057 80.5389 81.2128 78.4361 80.8093 76.4073C80.4057 74.3786 79.4097 72.5151 77.947 71.0525C76.4844 69.5898 74.6209 68.5938 72.5921 68.1902C70.5634 67.7867 68.4606 67.9938 66.5495 68.7854C64.6385 69.5769 63.0051 70.9174 61.8559 72.6373C60.7068 74.3572 60.0934 76.3792 60.0934 78.4477L15.8752 132.497L15.6033 133.396L16.5027 133.124Z" clip-rule="evenodd"/></svg>