<svg width="52" height="52" viewBox="0 0 52 52" fill="none" xmlns="http://www.w3.org/2000/svg">
<path d="M25.993 17.3296C21.2189 17.3296 17.3228 21.2258 17.3228 26C17.3228 30.7742 21.2189 34.6704 25.993 34.6704C30.7671 34.6704 34.6632 30.7742 34.6632 26C34.6632 21.2258 30.7671 17.3296 25.993 17.3296ZM51.9971 26C51.9971 22.4096 52.0296 18.8517 51.828 15.2677C51.6264 11.1049 50.6767 7.41044 47.6327 4.36638C44.5822 1.31582 40.8943 0.372685 36.7316 0.171049C33.1412 -0.0305874 29.5834 0.00193469 25.9995 0.00193469C22.4092 0.00193469 18.8513 -0.0305874 15.2675 0.171049C11.1047 0.372685 7.4103 1.32233 4.3663 4.36638C1.3158 7.41694 0.372678 11.1049 0.171046 15.2677C-0.0305868 18.8582 0.00193466 22.4161 0.00193466 26C0.00193466 29.5839 -0.0305868 33.1483 0.171046 36.7323C0.372678 40.8951 1.3223 44.5896 4.3663 47.6336C7.41681 50.6842 11.1047 51.6273 15.2675 51.829C18.8578 52.0306 22.4157 51.9981 25.9995 51.9981C29.5899 51.9981 33.1477 52.0306 36.7316 51.829C40.8943 51.6273 44.5887 50.6777 47.6327 47.6336C50.6832 44.5831 51.6264 40.8951 51.828 36.7323C52.0361 33.1483 51.9971 29.5904 51.9971 26ZM25.993 39.3405C18.6107 39.3405 12.6527 33.3825 12.6527 26C12.6527 18.6175 18.6107 12.6595 25.993 12.6595C33.3754 12.6595 39.3333 18.6175 39.3333 26C39.3333 33.3825 33.3754 39.3405 25.993 39.3405ZM39.8796 15.2287C38.156 15.2287 36.7641 13.8368 36.7641 12.1131C36.7641 10.3895 38.156 8.99751 39.8796 8.99751C41.6033 8.99751 42.9952 10.3895 42.9952 12.1131C42.9957 12.5224 42.9155 12.9278 42.7591 13.306C42.6027 13.6842 42.3732 14.0279 42.0838 14.3173C41.7944 14.6067 41.4507 14.8362 41.0725 14.9926C40.6943 15.149 40.2889 15.2292 39.8796 15.2287Z" fill="white"/>
</svg>
