<svg xmlns="http://www.w3.org/2000/svg" width="52" height="52" fill="none" viewBox="0 0 52 52"><path fill="#fff" d="M26 0C11.6404 0 0 11.6404 0 26C0 40.3596 11.6404 52 26 52C40.3596 52 52 40.3596 52 26C52 11.6404 40.3596 0 26 0ZM19.6354 36.7765H14.3704V19.8331H19.6354V36.7765ZM16.9704 17.7531C15.3075 17.7531 14.2323 16.575 14.2323 15.1179C14.2323 13.631 15.34 12.4881 17.0381 12.4881C18.7362 12.4881 19.7762 13.631 19.8087 15.1179C19.8087 16.575 18.7362 17.7531 16.9704 17.7531ZM38.8646 36.7765H33.5996V27.3867C33.5996 25.201 32.8358 23.7169 30.9319 23.7169C29.4775 23.7169 28.6135 24.7217 28.2317 25.6885C28.0908 26.0325 28.0556 26.52 28.0556 27.0048V36.7737H22.7879V25.2363C22.7879 23.121 22.7202 21.3525 22.6498 19.8304H27.2242L27.4652 22.184H27.5708C28.2642 21.079 29.9623 19.4485 32.8033 19.4485C36.2673 19.4485 38.8646 21.7696 38.8646 26.7583V36.7765V36.7765Z"/></svg>