<svg xmlns="http://www.w3.org/2000/svg" width="53" height="53" fill="none" viewBox="0 0 53 53"><path fill="#fff" d="M26.1565 0C11.7339 0 0 11.7361 0 26.1586C0 40.5943 11.7339 52.3347 26.1565 52.3347C40.5921 52.3347 52.3347 40.5921 52.3347 26.1586C52.3347 11.7361 40.5921 0 26.1565 0ZM12.8831 35.7708C15.878 34.8533 18.9922 34.3845 22.1245 34.3795C27.3885 34.3795 32.5849 35.7141 37.1533 38.2392C37.4259 38.3875 37.6723 38.876 37.7857 39.4865C37.8947 40.0971 37.8511 40.7229 37.6723 41.0479C37.588 41.2024 37.4739 41.3387 37.3366 41.4488C37.1993 41.5589 37.0414 41.6407 36.8723 41.6894C36.7031 41.7381 36.526 41.7527 36.3511 41.7324C36.1763 41.7121 36.0072 41.6573 35.8536 41.5712C32.4981 39.7304 28.8071 38.5823 24.9994 38.195C21.1918 37.8077 17.3452 38.189 13.6877 39.3165C13.5198 39.3707 13.3428 39.3911 13.1669 39.3763C12.9911 39.3615 12.82 39.3119 12.6635 39.2303C12.507 39.1487 12.3683 39.0368 12.2555 38.9011C12.1427 38.7654 12.0581 38.6086 12.0065 38.4398C11.7731 37.6766 12.255 35.9758 12.8831 35.7708ZM11.7426 26.1325C15.1259 25.2133 18.6164 24.7477 22.1223 24.7478C28.433 24.7478 34.6979 26.2742 40.2432 29.1657C40.6335 29.362 40.9192 29.6978 41.05 30.1077C41.1162 30.3148 41.1402 30.5329 41.1207 30.7494C41.1013 30.9658 41.0387 31.1762 40.9367 31.3681C40.4417 32.3363 39.8616 32.9883 39.4974 32.9883C39.2318 32.9871 38.9702 32.9229 38.7342 32.8008C33.6081 30.1245 27.9072 28.7369 22.1245 28.7579C18.9079 28.7515 15.7053 29.1806 12.6039 30.0336C12.397 30.0901 12.181 30.1054 11.9682 30.0785C11.7555 30.0515 11.55 29.983 11.3638 29.8767C11.1775 29.7704 11.0139 29.6284 10.8825 29.4589C10.7511 29.2894 10.6543 29.0957 10.5978 28.8888C10.3536 27.9685 10.914 26.3593 11.7426 26.1325V26.1325ZM11.4482 19.8392C11.2028 19.9022 10.9473 19.916 10.6965 19.8797C10.4457 19.8434 10.2046 19.7578 9.98706 19.6279C9.76952 19.4979 9.57988 19.3262 9.42907 19.1225C9.27827 18.9189 9.16929 18.6874 9.10842 18.4414C8.84021 17.3555 9.51838 16.0951 10.504 15.8465C14.3059 14.9101 18.2068 14.4349 22.1223 14.4313C29.6454 14.4313 36.8545 16.1235 43.5447 19.462C44.0043 19.6905 44.3544 20.0923 44.518 20.5789C44.6815 21.0655 44.6452 21.5971 44.4169 22.0569C44.1051 22.6849 43.4291 23.3609 42.6833 23.3609C42.3909 23.3598 42.1022 23.2951 41.8372 23.1712C35.7197 20.1023 28.9665 18.5142 22.1223 18.5352C18.557 18.5352 14.9655 18.9735 11.4482 19.8392V19.8392Z"/></svg>