<svg xmlns="http://www.w3.org/2000/svg" width="52" height="52" fill="none" viewBox="0 0 52 52"><path fill="#fff" d="M30.3415 25.5477L24.2585 22.7094C23.7277 22.4629 23.2917 22.7392 23.2917 23.3269V28.6731C23.2917 29.2608 23.7277 29.5371 24.2585 29.2906L30.3388 26.4523C30.8723 26.2031 30.8723 25.7969 30.3415 25.5477ZM26 0C11.6404 0 0 11.6404 0 26C0 40.3596 11.6404 52 26 52C40.3596 52 52 40.3596 52 26C52 11.6404 40.3596 0 26 0ZM26 36.5625C12.6913 36.5625 12.4583 35.3627 12.4583 26C12.4583 16.6373 12.6913 15.4375 26 15.4375C39.3087 15.4375 39.5417 16.6373 39.5417 26C39.5417 35.3627 39.3087 36.5625 26 36.5625Z"/></svg>