<svg width="88" height="151" viewBox="0 0 88 151" fill="none" xmlns="http://www.w3.org/2000/svg">
<path d="M65.7656 80.2019C66.6978 78.1637 69.2811 76.2756 71.5089 76.0228C73.7367 75.77 75.767 73.7318 76.0198 71.504C76.2884 69.292 78.1686 66.7008 80.1989 65.7607C81.2218 65.2402 82.0542 64.4101 82.5776 63.3888C83.101 62.3674 83.2888 61.2069 83.114 60.0727C82.6558 57.8765 83.6512 54.835 85.2944 53.3261C86.1094 52.5129 86.6455 51.4624 86.8257 50.3254C87.006 49.1884 86.8212 48.0235 86.2977 46.9982C85.756 45.8956 85.4743 44.6835 85.4743 43.455C85.4743 42.2266 85.756 41.0144 86.2977 39.9119C86.8224 38.8868 87.0079 37.7217 86.8276 36.5844C86.6473 35.4471 86.1104 34.3965 85.2944 33.584C83.6512 32.0593 82.6637 29.0257 83.114 26.8374C83.2911 25.7008 83.1045 24.5373 82.581 23.513C82.0575 22.4887 81.2238 21.6559 80.1989 21.1336C79.1135 20.5545 78.1735 19.7368 77.4496 18.742C76.7258 17.7472 76.2369 16.6012 76.0198 15.3903C75.8397 14.258 75.3066 13.2114 74.4966 12.4C73.6865 11.5885 72.6409 11.0536 71.5089 10.8715C70.2975 10.6586 69.1506 10.1722 68.1554 9.44944C67.1601 8.72664 66.3428 7.78642 65.7656 6.70028C65.2444 5.6757 64.411 4.84339 63.3857 4.32363C62.3604 3.80388 61.1963 3.62361 60.0618 3.80888C58.8443 3.97952 57.6039 3.87043 56.4349 3.48988C55.2659 3.10933 54.199 2.46733 53.3152 1.61268C51.7905 -0.0463245 48.9465 -0.488724 46.9952 0.609376C45.0439 1.70748 41.8444 1.70748 39.901 0.609376C38.8788 0.0778445 37.7134 -0.113027 36.575 0.0646255C35.4366 0.242278 34.3848 0.779151 33.5731 1.59688C32.6901 2.45252 31.6232 3.09516 30.454 3.47577C29.2848 3.85639 28.0441 3.96491 26.8265 3.79308C25.6935 3.61079 24.5319 3.79342 23.5094 4.31457C22.487 4.83573 21.6567 5.66843 21.1385 6.69238C20.1984 8.71478 17.6151 10.6029 15.3873 10.8557C14.2532 11.0379 13.2057 11.5737 12.3942 12.3866C11.5827 13.1995 11.0488 14.248 10.8685 15.3824C10.6542 16.5933 10.1664 17.7394 9.44217 18.7333C8.71796 19.7272 7.77648 20.5427 6.68943 21.1178C5.66811 21.6428 4.83868 22.4769 4.31945 23.5011C3.80023 24.5254 3.61774 25.6875 3.79803 26.8216C4.23253 29.0099 3.24503 32.0514 1.60183 33.5682C-0.0413709 35.085 -0.49957 37.929 0.59853 39.8961C1.69663 41.8395 1.69663 45.039 0.59853 46.9824C0.074469 48.0089 -0.110733 49.1751 0.0695324 50.3135C0.249798 51.4519 0.786253 52.5038 1.60183 53.3182C3.25293 54.8192 4.23253 57.8607 3.79803 60.0648C3.61757 61.1967 3.80014 62.3568 4.31956 63.3786C4.83898 64.4004 5.66858 65.2315 6.68943 65.7528C8.72763 66.6929 10.5999 69.2841 10.8606 71.4961C11.1292 73.7239 13.1516 75.7621 15.3794 76.0149C17.6072 76.2677 20.1905 78.1637 21.1306 80.194C21.6529 81.214 22.4841 82.0429 23.5057 82.5622C24.5272 83.0815 25.6868 83.2646 26.8186 83.0854C29.0148 82.6509 32.0563 83.6305 33.5652 85.2816C34.379 86.0954 35.4295 86.6308 36.5662 86.811C37.7029 86.9913 38.8675 86.8071 39.8931 86.2849C41.8365 85.1868 45.036 85.1868 46.9873 86.2849C48.9386 87.383 51.7826 86.9248 53.3073 85.2816C54.832 83.6226 57.8577 82.6509 60.0539 83.0854C61.1884 83.2681 62.3516 83.0877 63.3774 82.5698C64.4031 82.052 65.239 81.2232 65.7656 80.2019ZM43.4481 70.2953C36.3244 70.2953 29.4925 67.4654 24.4552 62.4282C19.418 57.3909 16.5881 50.559 16.5881 43.4353C16.5881 36.3116 19.418 29.4796 24.4552 24.4424C29.4925 19.4052 36.3244 16.5753 43.4481 16.5753C50.5718 16.5753 57.4038 19.4052 62.441 24.4424C67.4782 29.4796 70.3081 36.3116 70.3081 43.4353C70.3081 50.559 67.4782 57.3909 62.441 62.4282C57.4038 67.4654 50.5718 70.2953 43.4481 70.2953ZM11.6506 86.1743L1.83093 141.861L26.5421 138.196L48.512 150.093L58.2922 94.6273C50.3953 96.9363 42.0692 97.3746 33.9735 95.9074C25.8778 94.4401 18.235 91.1078 11.6506 86.1743ZM74.74 86.5535C72.2729 88.3466 69.6563 89.9245 66.919 91.2698L61.0098 124.734L87.6249 110.293L74.74 86.5535Z" fill="#297880"/>
</svg>
