<svg width="184" height="150" viewBox="0 0 184 150" fill="none" xmlns="http://www.w3.org/2000/svg">
<path d="M70.875 0V12.9375C63.0938 9.84375 54.75 8.25 46.4063 8.25C29.625 8.25 12.8438 14.625 0 27.4687L31.2188 58.6875H41.625V69.0937C49.6875 77.1562 60.1875 81.375 70.7813 81.8437V103.125H42.75V131.25C42.75 141.563 51.1875 150 61.5 150H155.25C170.813 150 183.375 137.437 183.375 121.875V0H70.875ZM60.4688 60.0937V39.9375H39.0938L29.3438 30.1875C34.7874 28.0867 40.5713 27.0062 46.4063 27C58.9688 27 70.6875 31.875 79.5938 40.6875L92.8125 53.9062L90.9375 55.7812C88.5821 58.1594 85.7784 60.0468 82.6887 61.3341C79.599 62.6215 76.2847 63.2833 72.9375 63.2812C68.5313 63.2812 64.2188 62.1562 60.4688 60.0937V60.0937ZM164.625 121.875C164.625 127.031 160.406 131.25 155.25 131.25C150.094 131.25 145.875 127.031 145.875 121.875V103.125H89.625V78.8437C94.9688 76.6875 99.9375 73.5 104.25 69.1875L106.125 67.3125L132.656 93.75H145.875V80.5313L89.625 24.5625V18.75H164.625V121.875Z" fill="#297880"/>
</svg>
