<svg width="151" height="150" viewBox="0 0 151 150" fill="none" xmlns="http://www.w3.org/2000/svg">
<path fill-rule="evenodd" clip-rule="evenodd" d="M29.0632 104.999C29.4998 104.417 30.066 103.944 30.7169 103.619C31.3678 103.293 32.0855 103.124 32.8133 103.124H56.2513C57.4945 103.124 58.6868 103.618 59.5659 104.497C60.445 105.376 60.9389 106.568 60.9389 107.812C60.9389 109.055 60.445 110.247 59.5659 111.126C58.6868 112.005 57.4945 112.499 56.2513 112.499H35.1571L14.0628 140.625H135.941L114.846 112.499H93.7521C92.5089 112.499 91.3166 112.005 90.4375 111.126C89.5584 110.247 89.0645 109.055 89.0645 107.812C89.0645 106.568 89.5584 105.376 90.4375 104.497C91.3166 103.618 92.5089 103.124 93.7521 103.124H117.19C117.918 103.124 118.636 103.293 119.287 103.619C119.937 103.944 120.504 104.417 120.94 104.999L149.066 142.5C149.588 143.196 149.906 144.024 149.984 144.891C150.063 145.758 149.898 146.63 149.509 147.409C149.119 148.187 148.521 148.842 147.78 149.3C147.04 149.758 146.186 150 145.316 150H4.68761C3.81706 150 2.96372 149.758 2.22319 149.3C1.48266 148.842 0.884206 148.187 0.494886 147.409C0.105567 146.63 -0.0592364 145.758 0.0189434 144.891C0.0971231 144.024 0.415197 143.196 0.937524 142.5L29.0632 104.999Z" fill="#297880"/>
<path fill-rule="evenodd" clip-rule="evenodd" d="M37.5009 37.4974C37.5015 30.2806 39.5846 23.2173 43.5 17.155C47.4154 11.0927 52.997 6.2889 59.5748 3.3201C66.1527 0.351297 73.4475 -0.656438 80.5839 0.417816C87.7203 1.49207 94.3951 4.60268 99.8075 9.37639C105.22 14.1501 109.14 20.3841 111.097 27.3305C113.054 34.2768 112.966 41.6403 110.842 48.5375C108.718 55.4347 104.649 61.5725 99.1231 66.2145C93.5973 70.8565 86.8495 73.8055 79.6893 74.7076V126.562C79.6893 127.805 79.1955 128.997 78.3164 129.877C77.4373 130.756 76.2449 131.25 75.0017 131.25C73.7585 131.25 72.5662 130.756 71.6871 129.877C70.808 128.997 70.3141 127.805 70.3141 126.562V74.717C61.2479 73.5748 52.9108 69.1616 46.8687 62.3064C40.8266 55.4512 37.4954 46.6258 37.5009 37.488V37.4974Z" fill="#297880"/>
</svg>
