<svg xmlns="http://www.w3.org/2000/svg" width="158" height="152" fill="none" viewBox="0 0 158 152"><path fill="#297880" d="M69.52 116.865C69.52 119.38 68.5212 121.791 66.7434 123.569C64.9655 125.347 62.5543 126.345 60.04 126.345H44.24V142.145C44.24 144.66 43.2412 147.071 41.4634 148.849C39.6855 150.627 37.2743 151.625 34.76 151.625C32.2458 151.625 29.8345 150.627 28.0566 148.849C26.2788 147.071 25.28 144.66 25.28 142.145V126.345H9.48C6.96575 126.345 4.55447 125.347 2.77663 123.569C0.998783 121.791 0 119.38 0 116.865C0 114.351 0.998783 111.94 2.77663 110.162C4.55447 108.384 6.96575 107.385 9.48 107.385H25.28V91.5854C25.28 89.0712 26.2788 86.6599 28.0566 84.882C29.8345 83.1042 32.2458 82.1054 34.76 82.1054C37.2743 82.1054 39.6855 83.1042 41.4634 84.882C43.2412 86.6599 44.24 89.0712 44.24 91.5854V107.385H60.04C62.5543 107.385 64.9655 108.384 66.7434 110.162C68.5212 111.94 69.52 114.351 69.52 116.865ZM60.04 18.9054H9.48C6.96575 18.9054 4.55447 19.9042 2.77663 21.682C0.998783 23.4599 0 25.8712 0 28.3854C0 30.8997 0.998783 33.3109 2.77663 35.0888C4.55447 36.8666 6.96575 37.8654 9.48 37.8654H60.04C62.5543 37.8654 64.9655 36.8666 66.7434 35.0888C68.5212 33.3109 69.52 30.8997 69.52 28.3854C69.52 25.8712 68.5212 23.4599 66.7434 21.682C64.9655 19.9042 62.5543 18.9054 60.04 18.9054ZM97.96 110.598H148.52C151.034 110.598 153.446 109.599 155.223 107.821C157.001 106.043 158 103.632 158 101.118C158 98.6033 157.001 96.192 155.223 94.4142C153.446 92.6363 151.034 91.6376 148.52 91.6376H97.96C95.4457 91.6376 93.0345 92.6363 91.2566 94.4142C89.4788 96.192 88.48 98.6033 88.48 101.118C88.48 103.632 89.4788 106.043 91.2566 107.821C93.0345 109.599 95.4457 110.598 97.96 110.598ZM148.52 123.133H97.96C95.4457 123.133 93.0345 124.132 91.2566 125.91C89.4788 127.688 88.48 130.099 88.48 132.613C88.48 135.128 89.4788 137.539 91.2566 139.317C93.0345 141.094 95.4457 142.093 97.96 142.093H148.52C151.034 142.093 153.446 141.094 155.223 139.317C157.001 137.539 158 135.128 158 132.613C158 130.099 157.001 127.688 155.223 125.91C153.446 124.132 151.034 123.133 148.52 123.133ZM97.5769 54.0486C99.3547 55.8263 101.766 56.825 104.28 56.825C106.794 56.825 109.205 55.8263 110.983 54.0486L123.24 41.7925L135.497 54.0486C137.28 55.8025 139.683 56.7809 142.184 56.7707C144.685 56.7606 147.08 55.7626 148.849 53.9942C150.617 52.2258 151.615 49.8303 151.625 47.3294C151.636 44.8286 150.657 42.425 148.903 40.6423L136.647 28.3854L148.903 16.1286C150.657 14.3458 151.636 11.9423 151.625 9.4414C151.615 6.94054 150.617 4.54502 148.849 2.77663C147.08 1.00824 144.685 0.010262 142.184 7.86986e-05C139.683 -0.0101046 137.28 0.96833 135.497 2.72226L123.24 14.9783L110.983 2.72226C109.2 0.96833 106.797 -0.0101046 104.296 7.86986e-05C101.795 0.010262 99.3996 1.00824 97.6312 2.77663C95.8628 4.54502 94.8649 6.94054 94.8547 9.4414C94.8445 11.9423 95.8229 14.3458 97.5769 16.1286L109.833 28.3854L97.5769 40.6423C95.7991 42.4201 94.8004 44.8313 94.8004 47.3454C94.8004 49.8596 95.7991 52.2707 97.5769 54.0486Z"/></svg>