<svg xmlns="http://www.w3.org/2000/svg" width="206" height="144" fill="none" viewBox="0 0 206 144"><path fill="#297880" d="M195.7 0H10.3C4.61247 0 0 4.60607 0 10.2857V133.714C0 139.394 4.61247 144 10.3 144H195.7C201.388 144 206 139.394 206 133.714V10.2857C206 4.60607 201.388 0 195.7 0ZM56.65 95.1043V100.286C56.65 101.706 55.4977 102.857 54.075 102.857H48.925C47.5023 102.857 46.35 101.706 46.35 100.286V95.0496C42.716 94.8632 39.1818 93.5968 36.2528 91.4014C34.9975 90.4596 34.9331 88.5825 36.0693 87.4993L39.8513 83.8961C40.7429 83.0475 42.0691 83.0089 43.1119 83.6614C44.3576 84.4393 45.7706 84.8571 47.2384 84.8571H56.2863C58.3785 84.8571 60.0844 82.9543 60.0844 80.6175C60.0844 78.705 58.9224 77.0207 57.2616 76.5257L42.7772 72.1864C36.7935 70.3929 32.6124 64.6586 32.6124 58.2396C32.6124 50.3582 38.7441 43.9554 46.3468 43.7529V38.5714C46.3468 37.1507 47.4991 36 48.9218 36H54.0718C55.4945 36 56.6468 37.1507 56.6468 38.5714V43.8075C60.2808 43.9939 63.8149 45.2571 66.744 47.4557C67.9993 48.3975 68.0637 50.2746 66.9275 51.3579L63.1454 54.9611C62.2538 55.8096 60.9277 55.8482 59.8848 55.1957C58.6392 54.4146 57.2262 54 55.7584 54H46.7105C44.6183 54 42.9124 55.9029 42.9124 58.2396C42.9124 60.1521 44.0743 61.8364 45.7352 62.3314L60.2196 66.6707C66.2032 68.4643 70.3844 74.1986 70.3844 80.6175C70.3844 88.5021 64.2527 94.9018 56.65 95.1043ZM133.9 90C133.9 91.4207 132.748 92.5714 131.325 92.5714H95.275C93.8523 92.5714 92.7 91.4207 92.7 90V84.8571C92.7 83.4364 93.8523 82.2857 95.275 82.2857H131.325C132.748 82.2857 133.9 83.4364 133.9 84.8571V90ZM185.4 90C185.4 91.4207 184.248 92.5714 182.825 92.5714H157.075C155.652 92.5714 154.5 91.4207 154.5 90V84.8571C154.5 83.4364 155.652 82.2857 157.075 82.2857H182.825C184.248 82.2857 185.4 83.4364 185.4 84.8571V90ZM185.4 59.1429C185.4 60.5636 184.248 61.7143 182.825 61.7143H95.275C93.8523 61.7143 92.7 60.5636 92.7 59.1429V54C92.7 52.5793 93.8523 51.4286 95.275 51.4286H182.825C184.248 51.4286 185.4 52.5793 185.4 54V59.1429Z"/></svg>