<svg width="153" height="148" viewBox="0 0 153 148" fill="none" xmlns="http://www.w3.org/2000/svg">
<path d="M0 0V139.039C0 141.208 0.861689 143.289 2.39551 144.822C3.92932 146.356 6.00962 147.218 8.17877 147.218H147.218V130.86H16.3575V0H0Z" fill="#297880"/>
<path d="M100.542 95.7488C101.301 96.509 102.202 97.1121 103.194 97.5235C104.186 97.935 105.25 98.1468 106.324 98.1468C107.398 98.1468 108.462 97.935 109.454 97.5235C110.446 97.1121 111.348 96.509 112.107 95.7488L153 54.8549L141.436 43.2902L106.324 78.4016L87.5702 59.6477C86.8113 58.8875 85.91 58.2844 84.9178 57.873C83.9256 57.4615 82.862 57.2497 81.7878 57.2497C80.7137 57.2497 79.6501 57.4615 78.6579 57.873C77.6656 58.2844 76.7643 58.8875 76.0054 59.6477L35.1116 100.542L46.6764 112.106L81.7878 76.9949L100.542 95.7488Z" fill="#297880"/>
</svg>
