<svg width="144" height="144" viewBox="0 0 144 144" fill="none" xmlns="http://www.w3.org/2000/svg">
<path d="M37.0668 7.11728C43.1875 2.48182 50.6596 -0.0183369 58.3375 0.000101255C60.4915 0.000101255 62.2057 1.12198 63.202 1.89383C64.3148 2.77338 65.3559 3.89525 66.2894 5.01713C66.9512 5.82096 67.3129 6.82994 67.3125 7.87118V40.3876H57.5746C56.516 37.3935 54.4331 34.87 51.6938 33.2631C48.9546 31.6562 45.7355 31.0695 42.6055 31.6065C39.4755 32.1435 36.6361 33.7698 34.5892 36.1978C32.5422 38.6259 31.4196 41.6994 31.4196 44.8751C31.4196 48.0508 32.5422 51.1244 34.5892 53.5524C36.6361 55.9804 39.4755 57.6067 42.6055 58.1437C45.7355 58.6807 48.9546 58.094 51.6938 56.4871C54.4331 54.8802 56.516 52.3567 57.5746 49.3626H67.3125V133.862C67.3129 134.527 67.1658 135.183 66.8818 135.784C66.5978 136.384 66.1839 136.914 65.6701 137.336C61.5236 140.728 55.9771 143.6 49.3625 143.6C38.7182 143.6 30.7932 138.233 25.6685 131.816C21.9866 127.244 19.4648 121.849 18.318 116.092C14.831 115.162 11.5979 113.46 8.85833 111.111C3.90413 106.865 0 99.9816 0 89.7501C0 84.751 0.332074 80.2366 1.077 76.2876H29.1688C34.8769 76.2876 39.5798 80.5507 40.2977 86.0614C37.3131 87.1415 34.8061 89.2415 33.2193 91.9906C31.6326 94.7396 31.0683 97.9609 31.6259 101.086C32.1836 104.21 33.8274 107.038 36.2671 109.068C38.7067 111.098 41.7854 112.202 44.9595 112.183C48.1335 112.164 51.1988 111.024 53.614 108.964C56.0293 106.905 57.6392 104.058 58.1594 100.927C58.6797 97.7959 58.0769 94.5816 56.4574 91.8517C54.838 89.1218 52.306 87.0519 49.3087 86.0075C48.9304 80.925 46.6443 76.1735 42.9089 72.7062C39.1736 69.2388 34.2653 67.3121 29.1688 67.3126H3.95798C5.33115 64.6381 7.17103 62.3764 9.56735 60.7698C10.1735 60.3686 10.8096 60.0145 11.4701 59.7108C8.92115 52.2436 9.5853 43.5019 12.0445 36.6361C13.6151 32.2204 16.1101 28.047 19.5386 25.2647C21.8003 23.4249 24.4928 22.2132 27.4366 21.9799C28.729 15.8499 32.3639 10.7791 37.0757 7.11728H37.0668ZM76.2875 112.188H83.0188C88.3745 112.188 93.5108 110.06 97.2979 106.273C101.085 102.486 103.213 97.3496 103.213 91.9939V75.5247C106.207 74.4661 108.73 72.3832 110.337 69.644C111.944 66.9047 112.531 63.6856 111.994 60.5556C111.457 57.4256 109.83 54.5862 107.402 52.5393C104.974 50.4923 101.901 49.3697 98.725 49.3697C95.5493 49.3697 92.4757 50.4923 90.0477 52.5393C87.6197 54.5862 85.9934 57.4256 85.4564 60.5556C84.9194 63.6856 85.5061 66.9047 87.113 69.644C88.7199 72.3832 91.2434 74.4661 94.2375 75.5247V91.9939C94.2375 98.1866 89.2115 103.213 83.0188 103.213H76.2875V7.87118C76.2871 6.82994 76.6488 5.82096 77.3107 5.01713C78.2351 3.89525 79.2852 2.77338 80.3981 1.89383C81.3853 1.12198 83.0995 0.000101255 85.2625 0.000101255C92.9404 -0.0183369 100.413 2.48182 106.533 7.11728C111.245 10.7791 114.88 15.8499 116.163 21.9799C119.107 22.2043 121.8 23.4249 124.061 25.2647C127.49 28.047 129.985 32.2204 131.556 36.6361C134.015 43.5019 134.679 52.2526 132.13 59.7018C132.776 60.007 133.413 60.366 134.033 60.7788C136.501 62.4212 138.377 64.7727 139.759 67.546C142.478 72.9758 143.6 80.5507 143.6 89.7501C143.6 99.9906 139.696 106.865 134.742 111.111C132.002 113.46 128.769 115.162 125.282 116.092C124.385 121.1 121.872 126.898 117.932 131.816C112.816 138.233 104.882 143.6 94.2375 143.6C87.6319 143.6 82.0764 140.728 77.9389 137.336C77.4234 136.915 77.0079 136.385 76.7223 135.785C76.4366 135.184 76.2881 134.527 76.2875 133.862V112.188ZM44.875 40.3876C43.6848 40.3876 42.5434 40.8604 41.7019 41.702C40.8603 42.5435 40.3875 43.6849 40.3875 44.8751C40.3875 46.0653 40.8603 47.2067 41.7019 48.0482C42.5434 48.8898 43.6848 49.3626 44.875 49.3626C46.0652 49.3626 47.2066 48.8898 48.0481 48.0482C48.8897 47.2067 49.3625 46.0653 49.3625 44.8751C49.3625 43.6849 48.8897 42.5435 48.0481 41.702C47.2066 40.8604 46.0652 40.3876 44.875 40.3876ZM44.875 94.2376C43.6848 94.2376 42.5434 94.7104 41.7019 95.552C40.8603 96.3935 40.3875 97.535 40.3875 98.7251C40.3875 99.9153 40.8603 101.057 41.7019 101.898C42.5434 102.74 43.6848 103.213 44.875 103.213C46.0652 103.213 47.2066 102.74 48.0481 101.898C48.8897 101.057 49.3625 99.9153 49.3625 98.7251C49.3625 97.535 48.8897 96.3935 48.0481 95.552C47.2066 94.7104 46.0652 94.2376 44.875 94.2376ZM98.725 67.3126C99.9152 67.3126 101.057 66.8398 101.898 65.9983C102.74 65.1567 103.213 64.0153 103.213 62.8251C103.213 61.6349 102.74 60.4935 101.898 59.652C101.057 58.8104 99.9152 58.3376 98.725 58.3376C97.5348 58.3376 96.3934 58.8104 95.5519 59.652C94.7103 60.4935 94.2375 61.6349 94.2375 62.8251C94.2375 64.0153 94.7103 65.1567 95.5519 65.9983C96.3934 66.8398 97.5348 67.3126 98.725 67.3126Z" fill="#297880"/>
</svg>
