<svg xmlns="http://www.w3.org/2000/svg" width="151" height="150" fill="none" viewBox="0 0 151 150"><path fill="#297880" d="M69.9749 27.2985C63.9999 27.2985 58.4196 28.931 53.6503 31.7798C53.1361 26.3083 51.3848 21.0253 48.5288 16.3301C55.4461 12.8754 63.0953 11.1424 70.8261 11.2784C78.5569 11.4144 86.1405 13.4154 92.9319 17.1113C99.7234 20.8071 105.522 26.0885 109.834 32.5062C114.146 38.924 116.845 46.2882 117.7 53.9727H131.336C141.643 53.9727 150.008 62.3378 150.008 72.6447V120.658C150.008 123.111 149.525 125.54 148.586 127.806C147.647 130.072 146.271 132.131 144.536 133.865C142.801 135.599 140.741 136.974 138.474 137.912C136.208 138.85 133.779 139.332 131.326 139.33H83.312C78.3599 139.33 73.6106 137.363 70.1089 133.861C66.6073 130.36 64.64 125.61 64.64 120.658V107.033C60.9412 106.623 57.303 105.781 53.7996 104.526C53.9063 102.008 53.9704 99.3829 53.9704 96.6515V95.7979C53.9704 93.2372 53.9703 90.2177 53.8637 86.9741C57.1888 88.9216 60.8403 90.2484 64.64 90.8898V72.6447C64.64 62.3378 73.0051 53.9727 83.312 53.9727H101.546C100.285 46.5124 96.4225 39.7399 90.643 34.8569C84.8635 29.9739 77.541 27.2961 69.9749 27.2985ZM116.804 69.9773C114.788 78.7952 110.325 86.8658 103.929 93.2619C97.5331 99.6581 89.4626 104.121 80.6446 106.137V120.658C80.6446 122.131 81.8396 123.326 83.312 123.326H131.326C132.033 123.326 132.712 123.045 133.212 122.544C133.712 122.044 133.993 121.366 133.993 120.658V72.6447C133.993 71.9372 133.712 71.2588 133.212 70.7585C132.712 70.2583 132.033 69.9773 131.326 69.9773H116.804ZM100.159 69.9773H83.312C82.6045 69.9773 81.9261 70.2583 81.4258 70.7585C80.9256 71.2588 80.6446 71.9372 80.6446 72.6447V89.5028C85.1472 87.9065 89.2366 85.3252 92.6146 81.9473C95.9926 78.5693 98.5738 74.4798 100.17 69.9773H100.159Z"/><path fill="#297880" d="M28.1497 1.95804C29.0371 2.73133 29.6439 3.77639 29.8755 4.93044C30.107 6.08449 29.9505 7.28273 29.4301 8.33851C29.3398 8.65067 29.2931 8.97383 29.2914 9.29878C29.2914 9.97097 29.4621 11.2513 31.0732 12.8518C31.8521 13.6307 32.4496 14.1855 33.1005 14.7937C33.634 15.2845 34.1995 15.7966 34.9143 16.5008C36.3014 17.8239 37.7631 19.3816 39.0755 21.3342C41.7963 25.4207 43.3007 30.5315 43.3007 37.9682C43.3007 46.8454 40.0998 54.4316 35.0637 59.2223C38.1793 62.3805 39.9931 66.5097 41.1134 70.6388C43.3007 78.6624 43.3007 88.5852 43.3007 96.2567V96.6515C43.3007 118.61 39.1929 131.648 34.5409 139.405C32.7835 142.459 30.4754 145.162 27.7336 147.375C26.6477 148.222 25.4659 148.938 24.2126 149.509C24.2126 149.509 22.8576 150 21.9613 150C21.1922 149.939 20.4348 149.774 19.71 149.509C18.4567 148.938 17.2749 148.222 16.189 147.375C13.4472 145.162 11.1392 142.459 9.38176 139.405C4.72978 131.659 0.621948 118.61 0.621948 96.6515V96.2674C0.621948 88.5852 0.621949 78.6731 2.80923 70.6282C3.92955 66.5097 5.7434 62.3805 8.85895 59.2116C3.82285 54.4422 0.621948 46.8454 0.621948 37.9682C0.621948 34.4899 1.55021 30.3394 2.83057 26.509C4.11094 22.6679 5.90344 18.6988 7.97336 15.4979C10.4381 11.3367 13.9057 7.84771 16.5945 5.50038C18.0686 4.20397 19.607 2.98252 21.2038 1.84067L21.5239 1.62728L21.6199 1.55259L21.6519 1.53125L21.6732 1.52058C22.6516 0.868415 23.818 0.557739 24.9912 0.636849C26.1643 0.715959 27.2785 1.18042 28.1604 1.95804H28.1497Z"/></svg>