<svg xmlns="http://www.w3.org/2000/svg" width="112" height="150" fill="none" viewBox="0 0 112 150"><path fill="#297880" d="M55.9999 102.667C74.1999 102.667 88.6665 88.1999 88.6665 69.9999V32.6666C88.6665 14.4667 74.1999 0 55.9999 0C37.7999 0 23.3333 14.4667 23.3333 32.6666V69.9999C23.3333 88.1999 37.7999 102.667 55.9999 102.667Z"/><path fill="#297880" d="M112 70H102.667C102.667 95.6666 81.6666 116.667 55.9999 116.667C30.3333 116.667 9.33332 95.6666 9.33332 70H0C0 99.4 22.4 123.2 51.3333 125.533V140H37.3333C34.5333 140 32.6666 141.867 32.6666 144.667C32.6666 147.467 34.5333 149.333 37.3333 149.333H74.6666C77.4666 149.333 79.3333 147.467 79.3333 144.667C79.3333 141.867 77.4666 140 74.6666 140H60.6666V125.533C89.5999 123.2 112 99.4 112 70Z"/></svg>