<svg xmlns="http://www.w3.org/2000/svg" width="205" height="144" fill="none" viewBox="0 0 205 144"><path fill="#297880" d="M205 20.5714V8.21829C205.001 7.13867 204.79 6.06939 204.379 5.07169C203.968 4.07399 203.365 3.16748 202.604 2.40407C201.844 1.64066 200.94 1.03536 199.946 0.622828C198.952 0.2103 197.886 -0.0013473 196.81 6.45338e-06H8.21026C7.13342 -0.00134513 6.06686 0.210155 5.07147 0.622431C4.07609 1.03471 3.17137 1.63969 2.40898 2.40282C1.64658 3.16596 1.04145 4.07232 0.628115 5.07014C0.214783 6.06795 0.00135162 7.1377 6.41486e-06 8.21829V20.5714H20.5V41.1429H6.41486e-06V61.7143H20.5V82.2857H6.41486e-06V102.857H20.5V123.429H6.41486e-06V135.761C-0.00134264 136.843 0.210101 137.915 0.622227 138.916C1.03435 139.916 1.63906 140.825 2.40172 141.59C3.16439 142.355 4.07001 142.962 5.06673 143.376C6.06346 143.789 7.13169 144.001 8.21026 144H196.81C197.887 143.999 198.953 143.784 199.947 143.37C200.942 142.955 201.845 142.348 202.606 141.583C203.366 140.818 203.969 139.91 204.38 138.911C204.791 137.912 205.001 136.842 205 135.761V123.429H184.5V102.857H205V82.2857H184.5V61.7143H205V41.1429H184.5V20.5714H205ZM82 102.857V41.1429L133.25 72L82 102.857Z"/></svg>