<svg width="131" height="145" viewBox="0 0 131 145" fill="none" xmlns="http://www.w3.org/2000/svg">
<path d="M14.5556 145H116.444C124.472 145 131 138.497 131 130.5V29C131 21.0033 124.472 14.5 116.444 14.5H101.889V0H87.3333V14.5H43.6667V0H29.1111V14.5H14.5556C6.52817 14.5 0 21.0033 0 29V130.5C0 138.497 6.52817 145 14.5556 145ZM49.4816 130.406H36.3889V117.363L72.6104 81.3305L85.7031 94.3733L49.4816 130.406ZM91.8674 88.2325L78.7747 75.1898L88.7598 65.25L101.853 78.2927L91.8674 88.2325ZM14.5556 36.25H116.444V50.75H14.5556V36.25Z" fill="#297880"/>
</svg>
