<svg width="135" height="148" viewBox="0 0 135 148" fill="none" xmlns="http://www.w3.org/2000/svg">
<path d="M70.0977 76.2565H78.7571V84.916H70.0977V76.2565Z" fill="#297880"/>
<path d="M87.4165 76.2565H96.0759V84.916H87.4165V76.2565Z" fill="#297880"/>
<path d="M70.0977 93.5754H78.7571V102.235H70.0977V93.5754Z" fill="#297880"/>
<path d="M87.4165 93.5754H96.0759V102.235H87.4165V93.5754Z" fill="#297880"/>
<path d="M21.6483 41.6188H56.8922V50.2782H21.6483V41.6188Z" fill="#297880"/>
<path d="M21.6483 58.9376H56.8922V67.5971H21.6483V58.9376Z" fill="#297880"/>
<path d="M21.6483 76.2565H56.8922V84.916H21.6483V76.2565Z" fill="#297880"/>
<path d="M21.6483 93.5754H56.8922V102.235H21.6483V93.5754Z" fill="#297880"/>
<path d="M21.6483 110.894H56.8922V119.554H21.6483V110.894Z" fill="#297880"/>
<path d="M113.395 64.9993V128.213H9.48158V24.2999H75.5964L80.7055 15.6405H9.48158C7.18496 15.6405 4.98239 16.5528 3.35843 18.1768C1.73447 19.8008 0.822144 22.0033 0.822144 24.2999V128.213C0.822144 130.51 1.73447 132.712 3.35843 134.336C4.98239 135.96 7.18496 136.873 9.48158 136.873H17.6215V143.67C17.6215 144.819 18.0776 145.92 18.8896 146.732C19.7016 147.544 20.8029 148 21.9512 148C23.0995 148 24.2008 147.544 25.0128 146.732C25.8247 145.92 26.2809 144.819 26.2809 143.67V136.873H95.5564V143.67C95.5564 144.819 96.0126 145.92 96.8246 146.732C97.6365 147.544 98.7378 148 99.8861 148C101.034 148 102.136 147.544 102.948 146.732C103.76 145.92 104.216 144.819 104.216 143.67V136.873H113.395C115.691 136.873 117.894 135.96 119.518 134.336C121.142 132.712 122.054 130.51 122.054 128.213V64.9993H113.395Z" fill="#297880"/>
<path d="M99.756 3.25766L74.99 46.1652C74.4571 47.0052 74.1621 47.9741 74.1364 48.9686C74.1106 49.9631 74.3552 50.9459 74.844 51.8124C75.3327 52.6788 76.0474 53.3964 76.9119 53.8888C77.7763 54.3811 78.7581 54.6297 79.7527 54.6082H129.328C130.296 54.6105 131.248 54.357 132.087 53.8733C132.926 53.3896 133.623 52.6929 134.106 51.8537C134.59 51.0144 134.843 50.0624 134.84 49.0939C134.837 48.1255 134.579 47.1749 134.091 46.3384L109.325 3.25766C108.836 2.42227 108.138 1.72932 107.298 1.24776C106.459 0.766201 105.508 0.512817 104.54 0.512817C103.573 0.512817 102.622 0.766201 101.782 1.24776C100.943 1.72932 100.244 2.42227 99.756 3.25766Z" fill="#297880"/>
</svg>
