<svg xmlns="http://www.w3.org/2000/svg" width="769" height="493" fill="none" viewBox="0 0 769 493"><path fill="#297880" d="M26.1159 159.553C39.5279 130.893 57.1351 104.388 78.3583 80.9113C82.3894 76.455 86.5655 72.1317 90.8868 67.9413C140.239 20.2799 210.488 -7.07437 278.56 1.59245C325.022 7.52746 368.352 29.3939 405.381 58.0174C429.059 76.306 451.444 97.9065 479.959 106.972C516.13 118.431 555.143 107.613 593.079 107.444C651.755 107.178 711.168 135.366 743.36 184.405C772.493 228.791 777.221 288.19 755.381 336.601C733.541 385.011 685.942 420.924 633.409 428.491C600.31 433.326 566.534 427.548 533.193 430.219C484.519 434.123 439.302 455.603 392.816 470.555C308.164 497.74 212.931 502.624 132.451 464.886C66.2289 433.833 12.4023 369.491 2.37708 295.974C-3.95973 249.461 6.45247 201.727 26.1159 159.553Z"/><path fill="#fff" d="M26.1159 159.553C39.5279 130.893 57.1351 104.388 78.3583 80.9113C82.3894 76.455 86.5655 72.1317 90.8868 67.9413C140.239 20.2799 210.488 -7.07437 278.56 1.59245C325.022 7.52746 368.352 29.3939 405.381 58.0174C429.059 76.306 451.444 97.9065 479.959 106.972C516.13 118.431 555.143 107.613 593.079 107.444C651.755 107.178 711.168 135.366 743.36 184.405C772.493 228.791 777.221 288.19 755.381 336.601C733.541 385.011 685.942 420.924 633.409 428.491C600.31 433.326 566.534 427.548 533.193 430.219C484.519 434.123 439.302 455.603 392.816 470.555C308.164 497.74 212.931 502.624 132.451 464.886C66.2289 433.833 12.4023 369.491 2.37708 295.974C-3.95973 249.461 6.45247 201.727 26.1159 159.553Z" opacity=".7"/><path stroke="#263238" stroke-miterlimit="10" stroke-width="2" d="M554.648 242.529L571.482 403.814"/><path stroke="#263238" stroke-miterlimit="10" stroke-width="2" d="M568.773 372.942L561.13 364.892"/><path fill="#297880" stroke="#263238" stroke-miterlimit="10" d="M563.452 367.297C563.437 366.065 563.158 364.851 562.635 363.735C562.111 362.62 561.355 361.629 560.416 360.83C558.457 359.078 548.142 354.786 547.114 358.413C546.098 362.329 556.655 370.077 563.452 367.297Z"/><path stroke="#263238" stroke-miterlimit="10" stroke-width=".5" d="M563.451 367.297L553.632 361.193"/><path stroke="#263238" stroke-miterlimit="10" stroke-width="2" d="M570.683 391.291L563.052 383.229"/><path fill="#297880" stroke="#263238" stroke-miterlimit="10" d="M565.362 385.646C565.351 384.412 565.074 383.194 564.55 382.076C564.026 380.959 563.268 379.966 562.327 379.167C560.368 377.427 550.052 373.123 549.024 376.75C548.021 380.666 558.566 388.414 565.362 385.646Z"/><path stroke="#263238" stroke-miterlimit="10" stroke-width=".5" d="M565.362 385.646L555.555 379.53"/><path stroke="#263238" stroke-miterlimit="10" stroke-width="2" d="M564.092 328.194L556.461 320.131"/><path fill="#297880" stroke="#263238" stroke-miterlimit="10" d="M558.783 322.549C558.767 321.314 558.487 320.097 557.961 318.98C557.436 317.862 556.677 316.87 555.736 316.07C553.777 314.329 543.473 310.026 542.494 313.652C541.43 317.569 551.987 325.317 558.783 322.549Z"/><path stroke="#263238" stroke-miterlimit="10" stroke-width=".5" d="M558.783 322.549L548.964 316.432"/><path stroke="#263238" stroke-miterlimit="10" stroke-width="2" d="M566.015 346.531L558.372 338.468"/><path fill="#297880" stroke="#263238" stroke-miterlimit="10" d="M560.694 340.886C560.68 339.654 560.401 338.439 559.877 337.324C559.354 336.208 558.597 335.218 557.659 334.419C555.7 332.666 545.384 328.375 544.357 332.001C543.341 335.906 553.898 343.666 560.694 340.886Z"/><path stroke="#263238" stroke-miterlimit="10" stroke-width=".5" d="M560.694 340.886L550.875 334.769"/><path stroke="#263238" stroke-miterlimit="10" stroke-width="2" d="M560.985 298.398L553.354 290.335"/><path fill="#297880" stroke="#263238" stroke-miterlimit="10" d="M555.663 292.753C555.652 291.518 555.375 290.301 554.851 289.183C554.327 288.065 553.569 287.073 552.628 286.274C550.669 284.533 540.353 280.23 539.326 283.856C538.322 287.773 548.867 295.521 555.663 292.753Z"/><path stroke="#263238" stroke-miterlimit="10" stroke-width=".5" d="M555.664 292.753L545.856 286.636"/><path stroke="#263238" stroke-miterlimit="10" stroke-width="2" d="M557.864 268.469L550.221 260.406"/><path fill="#297880" stroke="#263238" stroke-miterlimit="10" d="M552.544 262.824C552.529 261.592 552.25 260.377 551.727 259.262C551.203 258.146 550.447 257.156 549.508 256.357C547.549 254.604 537.234 250.313 536.206 253.94C535.19 257.844 545.747 265.604 552.544 262.824Z"/><path stroke="#263238" stroke-miterlimit="10" stroke-width=".5" d="M552.544 262.824L542.724 256.708"/><path stroke="#263238" stroke-miterlimit="10" stroke-width="2" d="M567.478 362.099L573.283 352.635"/><path fill="#297880" stroke="#263238" stroke-miterlimit="10" d="M571.518 355.475C571.276 354.266 571.297 353.018 571.579 351.817C571.86 350.616 572.396 349.489 573.15 348.513C574.71 346.398 583.901 340.052 585.606 343.376C587.469 347.026 578.737 356.793 571.518 355.475Z"/><path stroke="#263238" stroke-miterlimit="10" stroke-width=".5" d="M571.517 355.475L580.358 347.026"/><path stroke="#263238" stroke-miterlimit="10" stroke-width="2" d="M562.448 313.822L568.252 304.369"/><path fill="#297880" stroke="#263238" stroke-miterlimit="10" d="M566.475 307.21C566.237 305.999 566.261 304.752 566.545 303.551C566.829 302.35 567.365 301.224 568.12 300.247C569.667 298.132 578.87 291.786 580.576 295.11C582.426 298.76 573.67 308.515 566.475 307.21Z"/><path stroke="#263238" stroke-miterlimit="10" stroke-width=".5" d="M566.475 307.21L575.315 298.76"/><path stroke="#263238" stroke-miterlimit="10" stroke-width="2" d="M560.235 292.62L566.039 283.155"/><path fill="#297880" stroke="#263238" stroke-miterlimit="10" d="M564.262 286.032C564.023 284.822 564.046 283.576 564.327 282.375C564.609 281.174 565.143 280.048 565.894 279.07C567.454 276.954 576.645 270.608 578.362 273.932C580.213 277.571 571.493 287.313 564.262 286.032Z"/><path stroke="#263238" stroke-miterlimit="10" stroke-width=".5" d="M564.261 285.996L573.102 277.547"/><path stroke="#263238" stroke-miterlimit="10" stroke-width="2" d="M556.982 261.518L562.786 252.054"/><path fill="#297880" stroke="#263238" stroke-miterlimit="10" d="M561.021 254.907C560.779 253.697 560.8 252.449 561.082 251.248C561.363 250.047 561.899 248.921 562.653 247.944C564.213 245.829 573.404 239.483 575.109 242.807C576.972 246.445 568.24 256.212 561.021 254.907Z"/><path stroke="#263238" stroke-miterlimit="10" stroke-width=".5" d="M561.021 254.907L569.861 246.457"/><path fill="#297880" stroke="#263238" stroke-miterlimit="10" d="M554.502 241.634C554.261 240.427 554.282 239.181 554.564 237.982C554.845 236.783 555.381 235.658 556.135 234.684C557.695 232.569 566.886 226.223 568.591 229.547C570.453 233.185 561.722 242.952 554.502 241.634Z"/><path stroke="#263238" stroke-miterlimit="10" stroke-width=".5" d="M554.503 241.634L563.343 233.197"/><path fill="#297880" stroke="#263238" stroke-miterlimit="10" d="M555.01 241.997C553.783 242.112 552.546 241.962 551.382 241.557C550.217 241.152 549.154 240.503 548.262 239.652C546.315 237.875 541.007 228.072 544.453 226.73C548.275 225.256 557.078 234.962 555.01 241.997Z"/><path stroke="#263238" stroke-miterlimit="10" stroke-width=".5" d="M555.01 241.997L547.537 232.327"/><path stroke="#263238" stroke-miterlimit="10" stroke-width="2" d="M599.054 264.746L582.317 426.031"/><path stroke="#263238" stroke-miterlimit="10" stroke-width="2" d="M586.017 395.268L580.2 385.815"/><path fill="#297880" stroke="#263238" stroke-miterlimit="10" d="M581.978 388.656C582.216 387.445 582.192 386.198 581.908 384.997C581.624 383.796 581.088 382.67 580.333 381.693C578.773 379.578 569.583 373.232 567.877 376.568C566.015 380.207 574.746 389.986 581.978 388.656Z"/><path stroke="#263238" stroke-miterlimit="10" stroke-width=".5" d="M581.978 388.656L573.634 380.654"/><path stroke="#263238" stroke-miterlimit="10" stroke-width="2" d="M590.661 350.507L584.856 341.055"/><path fill="#297880" stroke="#263238" stroke-miterlimit="10" d="M586.622 343.895C586.859 342.685 586.835 341.437 586.552 340.237C586.268 339.036 585.731 337.91 584.977 336.933C583.429 334.818 574.226 328.472 572.521 331.808C570.671 335.446 579.402 345.261 586.622 343.895Z"/><path stroke="#263238" stroke-miterlimit="10" stroke-width=".5" d="M586.622 343.895L578.278 335.894"/><path stroke="#263238" stroke-miterlimit="10" stroke-width="2" d="M588.75 368.856L582.946 359.392"/><path fill="#297880" stroke="#263238" stroke-miterlimit="10" d="M584.723 362.184C584.961 360.975 584.938 359.73 584.654 358.531C584.37 357.332 583.833 356.208 583.079 355.234C581.519 353.118 572.328 346.772 570.623 350.096C568.76 353.795 577.492 363.55 584.723 362.184Z"/><path stroke="#263238" stroke-miterlimit="10" stroke-width=".5" d="M584.723 362.232L576.367 354.23"/><path stroke="#263238" stroke-miterlimit="10" stroke-width="2" d="M593.757 320.711L587.94 311.259"/><path fill="#297880" stroke="#263238" stroke-miterlimit="10" d="M589.718 314.1C589.955 312.889 589.931 311.641 589.648 310.441C589.364 309.24 588.827 308.114 588.073 307.137C586.513 305.022 577.322 298.676 575.617 302.012C573.755 305.65 582.486 315.417 589.718 314.1Z"/><path stroke="#263238" stroke-miterlimit="10" stroke-width=".5" d="M589.718 314.1L581.374 306.085"/><path stroke="#263238" stroke-miterlimit="10" stroke-width="2" d="M596.865 290.783L591.048 281.33"/><path fill="#297880" stroke="#263238" stroke-miterlimit="10" d="M592.826 284.171C593.063 282.96 593.039 281.713 592.756 280.512C592.472 279.311 591.935 278.185 591.181 277.208C589.621 275.093 580.43 268.747 578.725 272.083C576.863 275.721 585.594 285.488 592.826 284.171Z"/><path stroke="#263238" stroke-miterlimit="10" stroke-width=".5" d="M592.826 284.171L584.469 276.169"/><path stroke="#263238" stroke-miterlimit="10" stroke-width="2" d="M586.997 384.389L594.628 376.327"/><path fill="#297880" stroke="#263238" stroke-miterlimit="10" d="M592.306 378.744C592.321 377.51 592.6 376.294 593.123 375.177C593.647 374.06 594.403 373.067 595.341 372.265C597.3 370.512 607.603 366.221 608.643 369.848C609.659 373.752 599.066 381.524 592.306 378.744Z"/><path stroke="#263238" stroke-miterlimit="10" stroke-width=".5" d="M592.306 378.744L602.694 372.289"/><path stroke="#263238" stroke-miterlimit="10" stroke-width="2" d="M592.003 336.111L599.634 328.049"/><path fill="#297880" stroke="#263238" stroke-miterlimit="10" d="M597.312 330.466C597.327 329.234 597.606 328.02 598.129 326.904C598.653 325.789 599.409 324.798 600.348 323.999C602.307 322.247 612.622 317.956 613.65 321.582C614.666 325.474 604.121 333.234 597.312 330.466Z"/><path stroke="#263238" stroke-miterlimit="10" stroke-width=".5" d="M597.312 330.466L607.7 324.023"/><path stroke="#263238" stroke-miterlimit="10" stroke-width="2" d="M594.204 314.909L601.835 306.835"/><path fill="#297880" stroke="#263238" stroke-miterlimit="10" d="M599.513 309.252C599.528 308.02 599.807 306.806 600.33 305.69C600.854 304.575 601.61 303.584 602.549 302.786C604.508 301.033 614.823 296.742 615.851 300.368C616.867 304.272 606.322 312.033 599.513 309.252Z"/><path stroke="#263238" stroke-miterlimit="10" stroke-width=".5" d="M599.513 309.252L609.913 302.81"/><path stroke="#263238" stroke-miterlimit="10" stroke-width="2" d="M597.433 283.808L605.064 275.746"/><path fill="#297880" stroke="#263238" stroke-miterlimit="10" d="M602.694 278.163C602.709 276.929 602.988 275.713 603.511 274.596C604.035 273.479 604.791 272.486 605.729 271.684C607.688 269.931 618.004 265.64 619.031 269.267C620.096 273.171 609.55 280.931 602.694 278.163Z"/><path stroke="#263238" stroke-miterlimit="10" stroke-width=".5" d="M602.742 278.163L613.142 271.708"/><path fill="#297880" stroke="#263238" stroke-miterlimit="10" d="M599.066 263.839C599.081 262.606 599.36 261.389 599.884 260.272C600.407 259.155 601.163 258.162 602.101 257.36C604.06 255.62 614.364 251.316 615.404 254.943C616.456 258.847 605.899 266.607 599.066 263.839Z"/><path stroke="#263238" stroke-miterlimit="10" stroke-width=".5" d="M599.102 263.839L609.49 257.397"/><path fill="#297880" stroke="#263238" stroke-miterlimit="10" d="M599.525 264.274C598.3 264.13 597.121 263.725 596.065 263.087C595.01 262.449 594.103 261.593 593.406 260.576C591.87 258.448 588.569 247.751 592.342 247.158C596.381 246.53 602.996 257.832 599.525 264.274Z"/><path stroke="#263238" stroke-miterlimit="10" stroke-width=".5" d="M599.525 264.299L594.204 253.299"/><path stroke="#263238" stroke-miterlimit="10" stroke-width="2" d="M579.862 199.074V403.028"/><path stroke="#263238" stroke-miterlimit="10" stroke-width="2" d="M580.031 372.362L573.271 363.55"/><path fill="#297880" stroke="#263238" stroke-miterlimit="10" d="M575.327 366.197C575.441 364.969 575.292 363.73 574.887 362.564C574.482 361.399 573.832 360.333 572.981 359.44C571.215 357.494 561.407 352.115 560.053 355.62C558.59 359.44 568.276 368.228 575.327 366.197Z"/><path stroke="#263238" stroke-miterlimit="10" stroke-width=".5" d="M575.327 366.197L566.197 359.09"/><path stroke="#263238" stroke-miterlimit="10" stroke-width="2" d="M580.031 334.032L573.271 325.22"/><path fill="#297880" stroke="#263238" stroke-miterlimit="10" d="M575.327 327.867C575.441 326.639 575.292 325.4 574.887 324.234C574.482 323.069 573.832 322.004 572.981 321.11C571.215 319.164 561.407 313.785 560.053 317.291C558.59 321.086 568.276 329.922 575.327 327.867Z"/><path stroke="#263238" stroke-miterlimit="10" stroke-width=".5" d="M575.327 327.867L566.197 320.76"/><path stroke="#263238" stroke-miterlimit="10" stroke-width="2" d="M580.031 289.03L573.271 280.218"/><path fill="#297880" stroke="#263238" stroke-miterlimit="10" d="M575.327 282.865C575.441 281.637 575.292 280.398 574.887 279.232C574.482 278.067 573.832 277.001 572.981 276.108C571.215 274.174 561.407 268.783 560.053 272.301C558.59 276.108 568.276 284.92 575.327 282.865Z"/><path stroke="#263238" stroke-miterlimit="10" stroke-width=".5" d="M575.327 282.865L566.197 275.758"/><path stroke="#263238" stroke-miterlimit="10" stroke-width="2" d="M580.031 259.077L573.271 250.265"/><path fill="#297880" stroke="#263238" stroke-miterlimit="10" d="M575.327 252.912C575.441 251.684 575.292 250.445 574.887 249.279C574.482 248.114 573.832 247.048 572.981 246.155C571.215 244.209 561.407 238.83 560.053 242.335C558.59 246.143 568.276 254.967 575.327 252.912Z"/><path stroke="#263238" stroke-miterlimit="10" stroke-width=".5" d="M575.327 252.912L566.197 245.805"/><path stroke="#263238" stroke-miterlimit="10" stroke-width="2" d="M580.031 228.991L573.271 220.179"/><path fill="#297880" stroke="#263238" stroke-miterlimit="10" d="M575.327 222.814C575.441 221.587 575.291 220.35 574.887 219.187C574.482 218.023 573.832 216.96 572.981 216.069C571.215 214.123 561.407 208.744 560.053 212.249C558.59 216.069 568.276 224.869 575.327 222.814Z"/><path stroke="#263238" stroke-miterlimit="10" stroke-width=".5" d="M575.327 222.814L566.197 215.719"/><path stroke="#263238" stroke-miterlimit="10" stroke-width="2" d="M579.886 384.063L586.634 375.251"/><path fill="#297880" stroke="#263238" stroke-miterlimit="10" d="M584.554 377.898C584.452 376.664 584.615 375.423 585.032 374.258C585.449 373.092 586.111 372.03 586.973 371.141C588.738 369.207 598.546 363.816 599.888 367.333C601.327 371.141 591.629 379.953 584.554 377.898Z"/><path stroke="#263238" stroke-miterlimit="10" stroke-width=".5" d="M584.578 377.898L594.253 370.416"/><path stroke="#263238" stroke-miterlimit="10" stroke-width="2" d="M579.886 323.105L586.634 314.293"/><path fill="#297880" stroke="#263238" stroke-miterlimit="10" d="M584.554 316.94C584.451 315.707 584.614 314.465 585.031 313.3C585.448 312.134 586.11 311.071 586.973 310.183C588.738 308.237 598.546 302.858 599.888 306.363C601.327 310.207 591.628 318.995 584.554 316.94Z"/><path stroke="#263238" stroke-miterlimit="10" stroke-width=".5" d="M584.578 316.94L594.253 309.458"/><path stroke="#263238" stroke-miterlimit="10" stroke-width="2" d="M579.886 293.019L586.634 284.207"/><path fill="#297880" stroke="#263238" stroke-miterlimit="10" d="M584.554 286.854C584.451 285.62 584.614 284.379 585.031 283.214C585.448 282.048 586.11 280.985 586.973 280.097C588.738 278.151 598.546 272.772 599.888 276.277C601.327 280.097 591.628 288.909 584.554 286.854Z"/><path stroke="#263238" stroke-miterlimit="10" stroke-width=".5" d="M584.578 286.854L594.253 279.372"/><path stroke="#263238" stroke-miterlimit="10" stroke-width="2" d="M579.886 253.251L586.634 244.439"/><path fill="#297880" stroke="#263238" stroke-miterlimit="10" d="M584.554 247.086C584.451 245.852 584.614 244.611 585.031 243.445C585.448 242.28 586.11 241.217 586.973 240.329C588.738 238.383 598.546 233.004 599.888 236.509C601.327 240.329 591.628 249.141 584.554 247.086Z"/><path stroke="#263238" stroke-miterlimit="10" stroke-width=".5" d="M584.578 247.086L594.253 239.604"/><path stroke="#263238" stroke-miterlimit="10" stroke-width="2" d="M579.886 221.98L586.634 213.18"/><path fill="#297880" stroke="#263238" stroke-miterlimit="10" d="M584.554 215.815C584.451 214.583 584.614 213.344 585.031 212.18C585.448 211.017 586.11 209.956 586.973 209.07C588.738 207.124 598.546 201.733 599.888 205.251C601.327 209.07 591.628 217.87 584.554 215.815Z"/><path stroke="#263238" stroke-miterlimit="10" stroke-width=".5" d="M584.578 215.815L594.253 208.333"/><path fill="#297880" stroke="#263238" stroke-miterlimit="10" d="M579.475 201.951C579.364 200.723 579.516 199.485 579.92 198.32C580.325 197.155 580.973 196.089 581.821 195.194C583.599 193.26 593.394 187.869 594.749 191.386C596.224 195.194 586.525 204.006 579.475 201.951Z"/><path stroke="#263238" stroke-miterlimit="10" stroke-width=".5" d="M579.475 201.951L589.149 194.468"/><path fill="#297880" stroke="#263238" stroke-miterlimit="10" d="M579.946 202.362C578.714 202.347 577.499 202.068 576.383 201.545C575.267 201.022 574.276 200.266 573.477 199.328C571.723 197.357 567.43 187.047 571.058 186.031C574.988 185.016 582.728 195.581 579.946 202.362Z"/><path stroke="#263238" stroke-miterlimit="10" stroke-width=".5" d="M579.947 202.362L573.513 191.966"/><path fill="#263238" stroke="#263238" stroke-miterlimit="10" d="M588.267 455.923H566.656L563.947 401.372H590.963L588.267 455.923Z"/><path stroke="#263238" stroke-miterlimit="10" d="M271.024 94.6252H259.56V100.101H271.024V94.6252Z"/><path stroke="#263238" stroke-miterlimit="10" d="M284.484 94.6252H273.019V100.101H284.484V94.6252Z"/><path stroke="#263238" stroke-miterlimit="10" d="M297.944 94.6252H286.479V100.101H297.944V94.6252Z"/><path stroke="#263238" stroke-miterlimit="10" d="M311.403 94.6252H299.939V100.101H311.403V94.6252Z"/><path stroke="#263238" stroke-miterlimit="10" d="M324.851 94.6252H313.386V100.101H324.851V94.6252Z"/><path stroke="#263238" stroke-miterlimit="10" d="M338.31 94.6252H326.846V100.101H338.31V94.6252Z"/><path stroke="#263238" stroke-miterlimit="10" d="M351.77 94.6252H340.305V100.101H351.77V94.6252Z"/><path stroke="#263238" stroke-miterlimit="10" d="M365.217 94.6252H353.753V100.101H365.217V94.6252Z"/><path stroke="#263238" stroke-miterlimit="10" d="M271.024 103.594H259.56V109.07H271.024V103.594Z"/><path stroke="#263238" stroke-miterlimit="10" d="M284.484 103.594H273.019V109.07H284.484V103.594Z"/><path stroke="#263238" stroke-miterlimit="10" d="M297.944 103.594H286.479V109.07H297.944V103.594Z"/><path stroke="#263238" stroke-miterlimit="10" d="M311.403 103.594H299.939V109.07H311.403V103.594Z"/><path stroke="#263238" stroke-miterlimit="10" d="M324.851 103.594H313.386V109.07H324.851V103.594Z"/><path stroke="#263238" stroke-miterlimit="10" d="M338.31 103.594H326.846V109.07H338.31V103.594Z"/><path stroke="#263238" stroke-miterlimit="10" d="M351.77 103.594H340.305V109.07H351.77V103.594Z"/><path stroke="#263238" stroke-miterlimit="10" d="M365.217 103.594H353.753V109.07H365.217V103.594Z"/><path stroke="#263238" stroke-miterlimit="10" d="M271.024 112.563H259.56V118.039H271.024V112.563Z"/><path stroke="#263238" stroke-miterlimit="10" d="M284.484 112.563H273.019V118.039H284.484V112.563Z"/><path stroke="#263238" stroke-miterlimit="10" d="M297.944 112.563H286.479V118.039H297.944V112.563Z"/><path stroke="#263238" stroke-miterlimit="10" d="M311.403 112.563H299.939V118.039H311.403V112.563Z"/><path stroke="#263238" stroke-miterlimit="10" d="M324.851 112.563H313.386V118.039H324.851V112.563Z"/><path stroke="#263238" stroke-miterlimit="10" d="M338.31 112.563H326.846V118.039H338.31V112.563Z"/><path stroke="#263238" stroke-miterlimit="10" d="M351.77 112.563H340.305V118.039H351.77V112.563Z"/><path stroke="#263238" stroke-miterlimit="10" d="M365.217 112.563H353.753V118.039H365.217V112.563Z"/><path stroke="#263238" stroke-miterlimit="10" d="M271.024 121.532H259.56V127.008H271.024V121.532Z"/><path stroke="#263238" stroke-miterlimit="10" d="M284.484 121.532H273.019V127.008H284.484V121.532Z"/><path stroke="#263238" stroke-miterlimit="10" d="M323.859 121.532H286.479V127.008H323.859V121.532Z"/><path stroke="#263238" stroke-miterlimit="10" d="M338.31 121.532H326.846V127.008H338.31V121.532Z"/><path stroke="#263238" stroke-miterlimit="10" d="M351.77 121.532H340.305V127.008H351.77V121.532Z"/><path stroke="#263238" stroke-miterlimit="10" d="M365.217 121.532H353.753V127.008H365.217V121.532Z"/><path stroke="#263238" stroke-miterlimit="10" d="M378.157 187.591C378.157 187.591 409.273 144.076 456.763 119.151"/><path stroke="#263238" stroke-miterlimit="10" d="M423.99 140.643L426.251 106.133"/><path stroke="#263238" stroke-miterlimit="10" d="M412.683 150.651L445.601 153.649"/><path stroke="#263238" stroke-miterlimit="10" d="M424.655 122.995C424.655 122.995 416.795 118.885 417.17 106.169C417.548 98.3397 420.734 90.9083 426.143 85.2332C430.222 91.2337 432.676 98.1885 433.266 105.419C434.003 117.011 424.655 122.995 424.655 122.995Z"/><path stroke="#263238" stroke-miterlimit="10" d="M398.474 148.415C398.474 148.415 390.625 144.305 390.988 131.589C391.37 123.758 394.56 116.327 399.973 110.653C404.042 116.658 406.487 123.612 407.072 130.84C407.87 142.432 398.474 148.415 398.474 148.415Z"/><path stroke="#263238" stroke-miterlimit="10" d="M431.379 152.15C433.148 150.125 435.336 148.508 437.791 147.41C440.247 146.312 442.911 145.76 445.601 145.792C454.949 145.792 464.297 158.508 464.297 158.508C457.861 160.891 451 161.908 444.15 161.494C432.879 160.744 431.379 152.15 431.379 152.15Z"/><path stroke="#263238" stroke-miterlimit="10" d="M442.601 128.229C442.601 128.229 438.865 116.637 450.825 111.778C457.738 108.861 465.51 108.727 472.52 111.403C472.52 111.403 472.52 123.744 461.636 128.603C450.752 133.463 442.601 128.229 442.601 128.229Z"/><path stroke="#263238" stroke-miterlimit="10" d="M399.598 162.618L398.848 133.837"/><path stroke="#263238" stroke-miterlimit="10" d="M660.484 110.75H602.594V147.206H635.39L634.314 163.851L647.181 147.206H660.484V110.75Z"/><path stroke="#263238" stroke-miterlimit="10" d="M691.503 152.755H651.765V177.788H674.27L673.532 189.211L682.372 177.788H691.503V152.755Z"/><path stroke="#263238" stroke-miterlimit="10" d="M622.801 128.978C622.801 129.607 622.615 130.222 622.265 130.744C621.916 131.267 621.419 131.675 620.838 131.915C620.257 132.156 619.617 132.219 619 132.096C618.384 131.973 617.817 131.671 617.372 131.226C616.927 130.782 616.624 130.215 616.502 129.598C616.379 128.982 616.442 128.343 616.683 127.762C616.923 127.181 617.331 126.684 617.854 126.335C618.377 125.986 618.992 125.799 619.621 125.799C620.039 125.798 620.453 125.879 620.84 126.038C621.227 126.197 621.578 126.431 621.873 126.727C622.169 127.022 622.403 127.373 622.563 127.76C622.722 128.146 622.803 128.56 622.801 128.978V128.978Z"/><path stroke="#263238" stroke-miterlimit="10" d="M636.273 128.978C636.271 129.604 636.083 130.215 635.733 130.734C635.384 131.254 634.888 131.658 634.309 131.895C633.73 132.133 633.093 132.194 632.479 132.071C631.865 131.947 631.302 131.645 630.86 131.201C630.418 130.758 630.118 130.193 629.996 129.579C629.875 128.966 629.938 128.329 630.179 127.751C630.419 127.173 630.825 126.679 631.346 126.332C631.866 125.985 632.479 125.799 633.105 125.799C633.522 125.799 633.935 125.881 634.32 126.041C634.705 126.201 635.055 126.436 635.349 126.731C635.644 127.026 635.877 127.377 636.035 127.763C636.194 128.148 636.275 128.561 636.273 128.978V128.978Z"/><path stroke="#263238" stroke-miterlimit="10" d="M649.733 128.978C649.731 129.604 649.543 130.215 649.193 130.734C648.844 131.254 648.348 131.658 647.769 131.895C647.19 132.133 646.553 132.194 645.939 132.071C645.325 131.947 644.762 131.645 644.32 131.201C643.878 130.758 643.578 130.193 643.456 129.579C643.335 128.966 643.398 128.329 643.639 127.751C643.879 127.173 644.285 126.679 644.806 126.332C645.326 125.985 645.939 125.799 646.565 125.799C646.982 125.799 647.395 125.881 647.78 126.041C648.165 126.201 648.515 126.436 648.809 126.731C649.104 127.026 649.337 127.377 649.495 127.763C649.654 128.148 649.735 128.561 649.733 128.978V128.978Z"/><path stroke="#263238" stroke-miterlimit="10" d="M24.0095 217.109H67.8351V244.717H43.0078L43.8181 257.312L34.0831 244.717H24.0095V217.109Z"/><path stroke="#263238" stroke-miterlimit="10" d="M0.524658 248.911H30.6124V267.865H13.5732L14.1294 276.52L7.44194 267.865H0.524658V248.911Z"/><path stroke="#263238" stroke-miterlimit="10" d="M54.9439 233.318C56.273 233.318 57.3504 232.241 57.3504 230.913C57.3504 229.584 56.273 228.508 54.9439 228.508C53.6148 228.508 52.5374 229.584 52.5374 230.913C52.5374 232.241 53.6148 233.318 54.9439 233.318Z"/><path stroke="#263238" stroke-miterlimit="10" d="M44.7371 233.318C46.0662 233.318 47.1436 232.241 47.1436 230.913C47.1436 229.584 46.0662 228.508 44.7371 228.508C43.408 228.508 42.3306 229.584 42.3306 230.913C42.3306 232.241 43.408 233.318 44.7371 233.318Z"/><path stroke="#263238" stroke-miterlimit="10" d="M34.5306 233.318C35.8596 233.318 36.9371 232.241 36.9371 230.913C36.9371 229.584 35.8596 228.508 34.5306 228.508C33.2015 228.508 32.124 229.584 32.124 230.913C32.124 232.241 33.2015 233.318 34.5306 233.318Z"/><path stroke="#263238" stroke-miterlimit="10" d="M78.4771 135.506C78.2814 134.905 78.1914 134.275 78.211 133.644C78.211 126.984 83.4353 126.391 83.4353 118.8C83.4353 116.625 82.5646 115.791 81.0166 115.791C79.4687 115.791 78.598 116.625 78.598 118.8V122.1H74.0994V119.103C74.0994 114.268 76.518 111.439 81.1618 111.439C85.8055 111.439 88.2121 114.231 88.2121 119.103C88.2121 127.02 82.5525 128.241 82.5525 133.813C82.5482 134.382 82.605 134.949 82.7218 135.506H78.4771ZM82.8669 137.645V142.275H78.2594V137.657L82.8669 137.645Z"/><path stroke="#263238" stroke-miterlimit="10" d="M236.148 459.816C235.951 459.212 235.861 458.578 235.881 457.942C235.881 451.282 241.106 450.69 241.106 443.099C241.106 440.923 240.235 440.101 238.687 440.101C237.139 440.101 236.268 440.923 236.268 443.099V446.411H231.746V443.413C231.746 438.578 234.164 435.75 238.796 435.75C243.428 435.75 245.846 438.53 245.846 443.413C245.846 451.331 240.187 452.551 240.187 458.124C240.181 458.693 240.242 459.261 240.368 459.816H236.148ZM240.549 461.956V466.561H235.93V461.956H240.549Z"/><path fill="#9C9C9C" d="M144.624 377.866C148.161 376.686 154.434 370.921 154.434 370.909C154.434 370.897 149.388 367.973 149.046 367.831C145.072 366.157 136.406 365.261 133.257 368.928C132.759 369.552 132.397 370.273 132.194 371.045C131.991 371.817 131.952 372.623 132.078 373.411C132.205 374.199 132.495 374.952 132.929 375.622C133.364 376.291 133.933 376.863 134.602 377.3C137.384 379.28 141.558 378.856 144.624 377.866Z"/><path fill="#9C9C9C" d="M209.959 322.282C210.042 322.282 207.365 317.059 207.153 316.74C204.795 313.203 198.026 307.626 193.381 308.946C192.615 309.187 191.908 309.587 191.306 310.118C190.705 310.65 190.221 311.302 189.888 312.032C189.554 312.763 189.378 313.555 189.37 314.358C189.363 315.161 189.524 315.956 189.843 316.693C191.105 319.853 194.819 321.81 197.932 322.671C201.587 323.685 209.947 322.294 209.959 322.282Z"/><path fill="#9C9C9C" d="M163.125 394.267C166.167 392.274 170.364 385.612 170.695 385.082C174.5 387.49 178.463 389.641 182.556 391.52C184.915 392.628 187.367 393.677 189.82 394.692C188.641 394.385 187.568 394.137 187.462 394.114C183.181 393.548 174.586 394.975 172.522 399.337C172.199 400.074 172.034 400.871 172.04 401.676C172.046 402.481 172.221 403.275 172.555 404.008C172.889 404.74 173.374 405.394 173.978 405.926C174.582 406.458 175.291 406.857 176.059 407.096C179.267 408.275 183.134 406.73 185.882 404.962C188.629 403.193 192.308 397.545 193.263 396.048L196.093 397.227C200.632 399.031 205.16 400.764 209.558 402.698C211.103 403.358 212.6 404.077 214.109 404.773C213.048 404.514 212.164 404.301 212.022 404.29C207.742 403.724 199.158 405.15 197.083 409.513C196.76 410.249 196.596 411.045 196.601 411.849C196.607 412.653 196.783 413.447 197.117 414.179C197.451 414.91 197.936 415.563 198.539 416.094C199.143 416.625 199.852 417.022 200.62 417.26C203.839 418.439 207.754 416.894 210.442 415.126C213.131 413.357 216.503 408.263 217.659 406.494C219.168 407.261 220.689 408.027 222.127 408.853C223.094 409.43 224.073 409.914 225.016 410.551L227.823 412.355C229.556 413.534 231.36 414.807 233.034 416.034C234.213 416.882 235.298 417.708 236.407 418.533C234.874 417.861 231.843 416.588 231.572 416.517C227.433 415.338 218.72 415.42 216.02 419.418C215.587 420.094 215.302 420.854 215.183 421.649C215.065 422.443 215.115 423.253 215.331 424.027C215.547 424.8 215.923 425.519 216.436 426.137C216.949 426.755 217.587 427.258 218.307 427.612C221.302 429.228 225.382 428.332 228.341 426.987C231.56 425.514 236.595 419.818 237.161 419.099C238.989 420.479 240.757 421.835 242.396 423.144C247.184 426.929 251.169 430.336 254.188 433.001L256.546 430.855C253.386 428.19 249.165 424.724 244.083 420.88C242.231 419.477 240.227 418.003 238.187 416.517C239.275 414.338 240.236 412.098 241.064 409.808C244.684 410.173 251.499 408.298 252.384 408.051C253.15 410.209 253.869 412.319 254.518 414.312C256.381 420.007 257.807 424.924 258.857 428.827L261.498 426.469C260.402 422.825 258.987 418.38 257.23 413.369C256.463 411.176 255.603 408.853 254.683 406.471C255.496 406.011 262.052 402.191 264.116 399.314C265.991 396.696 267.653 392.84 266.639 389.574C266.425 388.802 266.051 388.083 265.542 387.464C265.033 386.845 264.399 386.339 263.683 385.98C262.966 385.621 262.182 385.417 261.381 385.38C260.58 385.343 259.781 385.474 259.034 385.766C254.588 387.664 252.82 396.189 253.209 400.481C253.209 400.74 253.798 403.464 254.176 405.197C253.798 404.219 253.445 403.275 252.997 402.285C252.218 400.304 251.381 398.359 250.497 396.26C250.025 395.257 249.565 394.255 249.082 393.241C248.599 392.227 248.033 391.201 247.502 390.164C246.24 387.806 244.837 385.447 243.363 383.089C245.097 382.405 251.193 379.882 253.457 377.571C255.72 375.26 257.937 371.675 257.418 368.338C257.327 367.542 257.069 366.773 256.661 366.083C256.253 365.392 255.704 364.796 255.05 364.332C254.396 363.868 253.651 363.547 252.864 363.39C252.078 363.233 251.267 363.244 250.485 363.421C245.769 364.601 242.762 372.784 242.503 377.087C242.503 377.347 242.644 380.46 242.762 382.169C241.866 380.778 240.982 379.387 240.038 378.007C237.303 374.033 234.402 370.095 231.537 366.157C230.652 364.978 229.792 363.74 228.931 362.525C229.544 362.289 236.855 359.448 239.39 356.866C241.642 354.507 243.87 350.97 243.363 347.621C243.271 346.824 243.011 346.055 242.602 345.365C242.192 344.674 241.642 344.078 240.987 343.614C240.332 343.15 239.587 342.83 238.8 342.673C238.012 342.516 237.201 342.527 236.418 342.704C231.702 343.883 228.695 352.067 228.436 356.37C228.436 356.7 228.648 361.169 228.766 362.266C226.856 359.589 224.981 356.913 223.236 354.201C220.857 350.553 218.722 346.752 216.845 342.822C217.128 342.716 224.769 339.78 227.363 337.127C229.615 334.769 231.843 331.232 231.336 327.895C231.245 327.098 230.987 326.329 230.579 325.639C230.171 324.949 229.622 324.352 228.968 323.888C228.314 323.424 227.569 323.103 226.782 322.946C225.996 322.79 225.185 322.8 224.403 322.978C219.687 324.157 216.68 332.34 216.421 336.644C216.421 336.927 216.574 340.334 216.692 341.95L216.432 342.02C214.638 338.019 213.21 333.863 212.164 329.604C211.563 327.246 211.115 324.994 210.725 322.789C212.199 322.388 218.979 320.49 221.55 318.356C224.12 316.221 226.643 313.014 226.514 309.607C226.507 308.804 226.332 308.012 226 307.282C225.668 306.552 225.186 305.899 224.586 305.367C223.986 304.834 223.281 304.434 222.516 304.191C221.751 303.949 220.944 303.869 220.147 303.959C215.371 304.631 211.445 312.413 210.714 316.67C210.714 316.894 210.525 319.287 210.442 321.032C210.289 320.03 210.101 319.004 209.971 318.037C209.464 314.417 209.216 311.081 209.016 308.121C208.921 306.435 208.874 304.902 208.839 303.475C210.077 302.296 215.053 297.58 216.35 294.596C217.647 291.613 218.413 287.522 216.727 284.55C216.354 283.839 215.835 283.215 215.204 282.718C214.573 282.221 213.845 281.862 213.066 281.665C212.287 281.468 211.476 281.437 210.685 281.575C209.893 281.713 209.14 282.015 208.473 282.463C204.535 285.27 204.641 293.983 205.95 298.098C206.068 298.452 208.462 303.805 208.532 303.746L208.603 303.676C208.603 305.043 208.603 306.517 208.697 308.133C208.827 311.104 208.992 314.465 209.428 318.108C209.854 322.034 210.507 325.932 211.386 329.781C212.348 334.103 213.698 338.33 215.418 342.41L215.489 342.551C214.569 341.478 211.893 338.566 211.657 338.365C208.403 335.535 200.444 331.986 196.328 334.486C195.653 334.919 195.076 335.49 194.636 336.161C194.196 336.832 193.902 337.588 193.774 338.381C193.646 339.173 193.687 339.983 193.893 340.759C194.1 341.534 194.468 342.257 194.972 342.881C197.024 345.605 201.116 346.513 204.346 346.525C207.978 346.525 215.147 343.282 215.725 342.987C217.572 347.098 219.691 351.08 222.069 354.908C223.436 357.137 224.887 359.353 226.372 361.547C225.547 360.651 224.804 359.849 224.686 359.743C221.432 356.924 213.473 353.364 209.358 355.863C208.682 356.296 208.105 356.867 207.665 357.538C207.225 358.209 206.931 358.966 206.804 359.758C206.676 360.55 206.716 361.361 206.923 362.136C207.129 362.912 207.497 363.635 208.002 364.259C210.042 366.994 214.145 367.89 217.376 367.902C220.606 367.914 226.809 365.261 228.436 364.542C229.014 365.379 229.615 366.228 230.169 367.065C232.952 371.062 235.746 375.059 238.423 379.045C239.354 380.46 240.215 381.875 241.076 383.289C240.345 382.488 239.72 381.827 239.614 381.733C236.359 378.903 228.4 375.354 224.285 377.854C223.611 378.288 223.035 378.859 222.596 379.531C222.157 380.202 221.864 380.959 221.738 381.751C221.611 382.543 221.652 383.353 221.86 384.128C222.067 384.903 222.436 385.626 222.941 386.249C224.981 388.973 229.084 389.881 232.303 389.893C235.522 389.904 241.147 387.534 243.08 386.662C243.929 388.136 244.778 389.61 245.521 391.083C246.016 392.097 246.559 393.041 246.983 394.09C247.408 395.14 247.891 396.142 248.327 397.144C249.117 399.125 249.931 401.153 250.686 403.099C251.193 404.443 251.653 405.74 252.112 407.037C251.216 405.622 249.377 402.898 249.2 402.686C246.63 399.881 243.382 397.786 239.767 396.602C239.499 396.274 239.198 395.974 238.871 395.706C238.267 395.178 237.56 394.783 236.793 394.546C236.027 394.309 235.22 394.236 234.424 394.332C233.628 394.428 232.861 394.69 232.172 395.101C231.484 395.512 230.89 396.064 230.428 396.72C227.764 400.752 230.994 408.841 233.695 412.213C233.848 412.414 235.817 414.371 237.079 415.585L234.414 413.852C232.681 412.673 230.877 411.494 229.014 410.209L226.172 408.464C225.229 407.862 224.167 407.343 223.153 406.777C220.795 405.504 218.331 404.325 215.831 403.24C216.892 401.719 220.547 396.26 221.196 393.076C221.844 389.893 221.691 385.718 219.416 383.183C218.899 382.57 218.258 382.072 217.536 381.723C216.814 381.373 216.027 381.179 215.225 381.153C214.423 381.128 213.625 381.271 212.883 381.574C212.14 381.877 211.469 382.333 210.914 382.912C207.672 386.45 209.641 394.975 211.787 398.712C211.928 398.948 213.768 401.448 214.817 402.804C213.308 402.144 211.798 401.471 210.254 400.847C205.773 399.042 201.186 397.309 196.623 395.647C195.22 395.128 193.829 394.585 192.437 394.055C192.826 393.524 197.354 387.122 198.038 383.561C198.651 380.401 198.545 376.203 196.258 373.668C195.741 373.055 195.1 372.557 194.379 372.207C193.657 371.857 192.869 371.663 192.067 371.638C191.266 371.612 190.467 371.756 189.725 372.059C188.982 372.362 188.311 372.818 187.756 373.397C184.514 376.934 186.483 385.459 188.641 389.197C188.794 389.48 191.459 393.076 192.178 393.913C189.112 392.734 186.07 391.555 183.111 390.246C179.115 388.516 175.239 386.523 171.508 384.28C171.685 384.032 176.449 377.37 177.144 373.727C177.746 370.567 177.639 366.369 175.364 363.834C174.847 363.221 174.207 362.723 173.485 362.373C172.763 362.023 171.975 361.83 171.174 361.804C170.372 361.778 169.574 361.922 168.831 362.225C168.088 362.528 167.417 362.984 166.862 363.563C163.62 367.1 165.589 375.625 167.735 379.363C167.876 379.611 169.904 382.358 170.907 383.643L170.718 383.844C167.019 381.491 163.539 378.811 160.318 375.838C158.514 374.222 156.887 372.583 155.342 370.944C156.356 369.765 160.931 364.494 161.934 361.275C162.936 358.056 163.231 354.012 161.25 351.253C160.8 350.588 160.216 350.025 159.535 349.601C158.854 349.176 158.092 348.899 157.297 348.788C156.502 348.677 155.693 348.734 154.921 348.955C154.15 349.177 153.434 349.558 152.819 350.074C149.211 353.281 150.237 361.936 151.958 365.886C152.053 366.098 153.255 368.173 154.152 369.671C153.468 368.928 152.748 368.173 152.1 367.442C149.742 364.707 147.631 362.054 145.839 359.684C144.825 358.328 143.94 357.09 143.115 355.922C143.528 354.271 145.084 347.61 144.495 344.367C143.905 341.124 142.301 337.292 139.259 335.783C138.557 335.397 137.781 335.163 136.983 335.096C136.184 335.03 135.381 335.132 134.624 335.397C133.868 335.662 133.176 336.083 132.593 336.633C132.01 337.183 131.549 337.85 131.241 338.589C129.508 343.094 134.401 350.298 137.75 353.01C138.045 353.246 142.997 356.382 143.021 356.3C143.023 356.264 143.023 356.229 143.021 356.193C143.787 357.373 144.624 358.552 145.556 359.872C147.301 362.231 149.305 364.99 151.675 367.784C154.199 370.825 156.896 373.719 159.752 376.451C162.942 379.5 166.395 382.262 170.07 384.704L170.211 384.787C168.855 384.398 165.011 383.443 164.705 383.407C160.424 382.841 151.84 384.268 149.765 388.631C149.442 389.368 149.278 390.165 149.283 390.97C149.289 391.775 149.465 392.569 149.798 393.301C150.132 394.034 150.617 394.687 151.221 395.219C151.825 395.752 152.534 396.15 153.303 396.389C156.522 397.545 160.436 396.048 163.125 394.267Z"/><path fill="#9C9C9C" d="M383.725 95.1493C386.248 99.3705 395.339 105.561 395.351 105.561C395.363 105.561 397.615 98.3329 397.709 97.8494C398.676 92.343 397.309 81.1178 391.814 78.1936C390.88 77.733 389.86 77.4741 388.82 77.4338C387.779 77.3935 386.742 77.5727 385.775 77.9598C384.809 78.3469 383.935 78.9331 383.21 79.6804C382.485 80.4276 381.925 81.3191 381.567 82.2969C379.858 86.4002 381.579 91.5648 383.725 95.1493Z"/><path fill="#9C9C9C" d="M472.878 161.816C472.878 161.923 478.773 157.029 479.092 156.675C482.948 152.608 487.994 142.526 484.987 136.996C484.463 136.096 483.754 135.318 482.908 134.71C482.063 134.102 481.098 133.68 480.078 133.469C479.058 133.259 478.006 133.266 476.988 133.49C475.971 133.713 475.013 134.149 474.175 134.768C470.531 137.279 469.128 142.538 468.928 146.712C468.704 151.617 472.878 161.805 472.878 161.816Z"/><path fill="#9C9C9C" d="M368.291 123.295C371.698 126.561 381.343 129.957 382.11 130.216C380.164 135.729 378.589 141.366 377.393 147.089C376.674 150.414 376.049 153.798 375.471 157.194C375.471 155.602 375.471 154.176 375.471 153.975C374.953 148.41 370.672 137.939 364.553 136.583C363.53 136.384 362.477 136.403 361.462 136.638C360.447 136.873 359.493 137.32 358.662 137.948C357.831 138.577 357.141 139.373 356.639 140.286C356.136 141.199 355.832 142.207 355.745 143.245C355.226 147.643 358.268 152.171 361.287 155.036C364.305 157.902 372.512 161.038 374.681 161.816C374.469 163.113 374.245 164.422 374.045 165.719C373.066 171.98 372.123 178.23 371.003 184.337C370.613 186.483 370.142 188.594 369.682 190.705C369.682 189.29 369.682 188.099 369.682 187.922C369.163 182.345 364.883 171.886 358.763 170.518C357.741 170.321 356.688 170.341 355.673 170.578C354.659 170.815 353.706 171.263 352.876 171.892C352.046 172.522 351.358 173.319 350.857 174.232C350.356 175.145 350.053 176.154 349.967 177.192C349.448 181.578 352.479 186.106 355.497 188.983C358.516 191.86 365.932 194.667 368.468 195.61C367.937 197.756 367.406 199.902 366.793 201.953C366.333 203.345 366.003 204.713 365.473 206.092L363.987 210.16C362.961 212.707 361.912 215.348 360.839 217.824C360.108 219.534 359.377 221.161 358.646 222.8C359.058 220.666 359.825 216.468 359.825 216.115C360.155 210.526 357.466 199.536 351.665 197.249C350.684 196.897 349.639 196.756 348.6 196.835C347.56 196.915 346.549 197.212 345.633 197.708C344.716 198.204 343.914 198.888 343.279 199.715C342.645 200.542 342.191 201.494 341.949 202.508C340.77 206.764 343.128 211.705 345.628 215.018C348.434 218.673 357.077 223.343 358.162 223.92C356.983 226.621 355.733 229.25 354.554 231.703C351.135 238.86 347.974 244.873 345.475 249.484L348.882 251.913C351.359 247.196 354.519 240.817 357.914 233.271C359.164 230.523 360.45 227.564 361.735 224.51C364.802 225.268 367.913 225.839 371.05 226.22C371.639 230.936 375.967 239.001 376.533 240.039C374.021 241.631 371.569 243.152 369.222 244.543C362.56 248.552 356.7 251.783 352.113 254.224L355.827 256.877C360.131 254.448 365.343 251.382 371.156 247.715C373.715 246.111 376.415 244.343 379.162 242.503C379.976 243.399 386.697 250.592 390.953 252.384C394.809 254 400.162 255.002 403.994 252.773C404.913 252.284 405.719 251.606 406.359 250.783C406.998 249.961 407.457 249.014 407.705 248.002C407.953 246.99 407.985 245.938 407.799 244.913C407.612 243.889 407.212 242.915 406.624 242.055C402.945 236.973 391.649 237.197 386.319 238.93C386.013 239.037 382.723 240.522 380.671 241.501C381.792 240.746 382.888 240.015 384.032 239.225C386.308 237.669 388.536 236.053 390.93 234.332L394.349 231.679C395.528 230.806 396.625 229.757 397.78 228.79C400.41 226.503 402.968 224.074 405.48 221.527C406.848 223.508 411.8 230.5 415.373 232.693C418.945 234.886 424.086 236.678 428.201 235.051C429.184 234.706 430.084 234.158 430.841 233.442C431.598 232.726 432.195 231.859 432.595 230.896C432.994 229.934 433.186 228.899 433.158 227.857C433.131 226.816 432.884 225.792 432.434 224.852C429.569 219.275 418.356 217.777 412.838 218.685C412.496 218.744 408.605 219.864 406.482 220.477C407.98 218.956 409.489 217.435 410.951 215.832C415.196 211.233 419.346 206.399 423.497 201.682C424.77 200.22 426.067 198.782 427.341 197.343C427.824 198.051 433.519 206.481 437.528 208.946C441.066 211.127 446.242 212.931 450.369 211.304C451.351 210.957 452.249 210.408 453.004 209.692C453.76 208.975 454.356 208.108 454.755 207.146C455.153 206.184 455.344 205.149 455.316 204.108C455.287 203.067 455.04 202.044 454.59 201.105C451.725 195.527 440.511 194.03 434.993 194.938C434.58 194.997 428.98 196.588 427.577 197.06C430.406 193.877 433.248 190.728 436.184 187.733C440.12 183.677 444.315 179.88 448.742 176.367C448.966 176.697 454.873 185.528 458.976 188.052C462.514 190.233 467.69 192.025 471.817 190.41C472.799 190.064 473.697 189.514 474.453 188.798C475.208 188.081 475.805 187.214 476.203 186.252C476.601 185.29 476.792 184.255 476.764 183.214C476.735 182.173 476.488 181.15 476.038 180.211C473.173 174.633 461.96 173.136 456.441 174.056C456.076 174.056 451.819 175.317 449.803 175.93L449.638 175.612C454.192 172.197 459.042 169.194 464.129 166.639C466.912 165.2 469.647 163.986 472.383 162.854C473.314 164.611 477.665 172.594 481.108 175.27C484.551 177.947 489.362 180.187 493.607 179.031C494.621 178.795 495.573 178.348 496.403 177.72C497.232 177.091 497.92 176.295 498.422 175.383C498.923 174.471 499.227 173.463 499.314 172.426C499.401 171.389 499.268 170.345 498.925 169.363C496.684 163.467 485.719 160.779 480.13 161.109C479.823 161.109 476.746 161.64 474.517 162.029C475.696 161.545 476.993 161.015 478.172 160.567C482.606 158.88 486.756 157.607 490.459 156.51C492.558 155.897 494.479 155.331 496.272 154.93C498.088 156.18 505.457 161.121 509.678 161.887C513.9 162.654 519.241 162.465 522.495 159.47C523.286 158.793 523.926 157.957 524.373 157.016C524.819 156.075 525.063 155.051 525.087 154.01C525.112 152.968 524.917 151.934 524.515 150.973C524.113 150.012 523.513 149.147 522.755 148.433C518.038 144.271 507.084 146.912 502.262 149.742C501.837 149.99 495.765 154.577 495.859 154.647L495.965 154.718C494.232 155.119 492.369 155.579 490.341 156.109C486.627 157.135 482.417 158.326 477.937 159.918C473.087 161.608 468.339 163.576 463.716 165.814C458.529 168.28 453.569 171.2 448.895 174.539L448.742 174.669C449.826 173.195 452.751 168.974 452.939 168.62C455.581 163.679 457.785 152.596 453.435 148.08C452.689 147.353 451.799 146.791 450.822 146.43C449.846 146.068 448.804 145.916 447.765 145.983C446.726 146.049 445.712 146.334 444.79 146.817C443.867 147.3 443.056 147.971 442.41 148.787C439.556 152.171 439.592 157.619 440.511 161.698C441.549 166.297 447.716 174.445 448.211 175.093C443.543 178.615 439.116 182.443 434.958 186.554C432.517 188.912 430.147 191.412 427.789 193.924C428.697 192.615 429.487 191.436 429.581 191.259C432.222 186.33 434.427 175.235 430.076 170.731C429.333 170.001 428.445 169.436 427.469 169.072C426.493 168.709 425.451 168.556 424.412 168.623C423.372 168.689 422.359 168.975 421.437 169.46C420.516 169.945 419.707 170.619 419.063 171.438C416.198 174.81 416.233 180.258 417.153 184.337C418.073 188.417 423.214 195.539 424.593 197.378L421.905 200.291C417.637 205.007 413.404 209.665 409.1 214.134C407.591 215.714 406.034 217.211 404.489 218.72C405.291 217.541 405.963 216.574 406.046 216.362C408.687 211.434 410.892 200.338 406.541 195.834C405.797 195.105 404.908 194.54 403.932 194.177C402.955 193.814 401.913 193.66 400.874 193.725C399.834 193.791 398.82 194.075 397.897 194.558C396.974 195.041 396.163 195.713 395.516 196.53C392.663 199.914 392.698 205.361 393.618 209.441C394.538 213.521 399.172 219.947 400.811 222.152C399.183 223.637 397.556 225.135 395.905 226.514C394.726 227.422 393.724 228.377 392.521 229.238L389.043 231.809C386.779 233.377 384.445 234.992 382.192 236.466C380.624 237.492 379.127 238.447 377.606 239.414C379.138 237.857 382.063 234.756 382.322 234.473C385.126 230.423 386.848 225.723 387.322 220.819C387.655 220.383 387.947 219.918 388.194 219.428C388.688 218.511 388.984 217.5 389.063 216.461C389.141 215.422 389 214.379 388.648 213.398C388.297 212.417 387.743 211.521 387.023 210.768C386.303 210.016 385.432 209.423 384.468 209.028C378.573 206.823 369.293 213.238 365.815 217.624C365.602 217.883 363.692 220.937 362.513 222.883C363.032 221.633 363.551 220.43 364.069 219.133C365.107 216.586 366.074 214.016 367.112 211.245C367.571 209.889 368.043 208.521 368.503 207.142C368.963 205.762 369.34 204.288 369.776 202.85C370.708 199.477 371.486 196.034 372.194 192.532C374.422 193.44 382.405 196.541 386.602 196.4C390.8 196.258 396.035 194.914 398.617 191.294C399.245 190.463 399.691 189.51 399.926 188.495C400.161 187.48 400.179 186.428 399.98 185.405C399.781 184.383 399.369 183.414 398.77 182.562C398.172 181.71 397.401 180.993 396.507 180.458C391.048 177.381 380.872 182.321 376.768 186.118C376.509 186.366 373.868 189.419 372.453 191.129C372.854 189.03 373.278 186.932 373.632 184.786C374.622 178.595 375.436 172.311 376.285 166.038C376.533 164.116 376.816 162.206 377.087 160.295C377.877 160.626 387.286 164.517 391.991 164.351C396.165 164.21 401.424 162.866 403.994 159.246C404.623 158.416 405.069 157.463 405.305 156.448C405.54 155.434 405.56 154.382 405.362 153.36C405.164 152.338 404.753 151.369 404.156 150.516C403.558 149.663 402.788 148.945 401.895 148.41C396.424 145.344 386.249 150.273 382.145 154.081C381.839 154.364 378.042 158.798 377.134 159.977C377.735 155.768 378.313 151.57 379.162 147.455C380.22 141.895 381.634 136.408 383.395 131.03C383.761 131.183 393.559 135.298 398.382 135.133C402.556 134.98 407.815 133.647 410.385 130.027C411.014 129.196 411.46 128.242 411.696 127.227C411.932 126.212 411.951 125.159 411.753 124.136C411.555 123.113 411.144 122.143 410.547 121.289C409.95 120.435 409.179 119.716 408.286 119.18C402.815 116.114 392.651 121.043 388.536 124.851C388.265 125.099 385.376 128.459 384.032 130.086L383.725 129.91C385.617 124.552 387.984 119.375 390.8 114.44C392.333 111.704 393.936 109.169 395.516 106.74C397.261 107.695 405.291 111.952 409.666 112.294C413.84 112.6 419.228 111.846 422.164 108.532C422.879 107.775 423.427 106.876 423.772 105.894C424.116 104.911 424.25 103.867 424.165 102.829C424.079 101.791 423.776 100.783 423.275 99.8704C422.774 98.9576 422.086 98.1605 421.256 97.5311C416.163 93.8758 405.515 97.6608 401.011 100.998C400.775 101.175 398.488 103.285 396.849 104.853C397.592 103.769 398.346 102.637 399.089 101.611C401.848 97.7669 404.619 94.4064 407.084 91.4469C408.51 89.7843 409.831 88.2986 411.069 86.9308C413.274 86.9308 422.153 87.0252 426.091 85.339C430.029 83.6529 434.345 80.54 435.453 76.2481C435.74 75.245 435.811 74.1927 435.664 73.16C435.516 72.1273 435.152 71.1374 434.595 70.255C434.039 69.3725 433.303 68.6174 432.435 68.0389C431.566 67.4604 430.586 67.0715 429.557 66.8977C423.355 66.0016 415.644 74.2789 413.18 79.302C412.967 79.7382 410.432 86.919 410.538 86.919H410.68C409.501 88.2161 408.145 89.6192 406.753 91.1874C404.218 94.0881 401.365 97.4014 398.5 101.198C395.375 105.268 392.489 109.516 389.857 113.921C386.892 118.84 384.371 124.013 382.322 129.379L382.251 129.579C382.357 127.74 382.452 122.611 382.416 122.21C381.898 116.633 377.617 106.174 371.498 104.818C370.476 104.621 369.424 104.641 368.41 104.877C367.397 105.113 366.444 105.56 365.614 106.188C364.785 106.816 364.097 107.612 363.595 108.524C363.093 109.436 362.789 110.443 362.702 111.48C362.242 115.878 365.272 120.406 368.291 123.295Z"/><path fill="#263238" d="M439.603 399.93V395.98C439.603 375.641 465.355 374.756 465.355 360.277C465.355 353.992 460.238 349.889 452.621 349.889C444.284 349.889 439.014 354.428 439.014 360.866V362.482C439.014 364.085 438.141 364.84 436.526 364.84L420.879 364.25C419.417 364.25 418.391 363.519 418.391 362.505V360.89C418.391 343.203 432.434 331.047 453.069 331.047C473.255 331.047 486.273 342.46 486.273 359.569C486.273 383.859 460.085 384.012 460.085 397.301V399.93C460.124 400.267 460.087 400.608 459.976 400.928C459.865 401.248 459.683 401.538 459.444 401.778C459.204 402.017 458.914 402.199 458.594 402.31C458.274 402.421 457.933 402.458 457.597 402.418H442.091C441.755 402.458 441.414 402.421 441.094 402.31C440.774 402.199 440.484 402.017 440.244 401.778C440.005 401.538 439.823 401.248 439.712 400.928C439.601 400.608 439.564 400.267 439.603 399.93V399.93ZM438.283 423.513C438.283 417.075 443.99 411.804 450.864 411.804C457.455 411.804 463.304 417.075 463.304 423.513C463.304 429.951 457.408 435.221 450.722 435.221C444.037 435.221 438.283 429.927 438.283 423.489V423.513Z"/><path fill="#297880" d="M130.44 232.378V228.947C130.44 211.26 152.843 210.517 152.843 197.936C152.843 192.465 148.397 188.916 141.794 188.916C134.543 188.916 130.003 192.854 130.003 198.443V199.846C130.003 201.238 129.249 201.874 127.845 201.874L114.25 201.367C112.977 201.367 112.093 200.731 112.093 199.846V198.443C112.093 183.115 124.285 172.503 142.207 172.503C159.741 172.503 171.06 182.419 171.06 197.264C171.06 218.359 148.303 218.488 148.303 230.055V232.343C148.337 232.634 148.305 232.93 148.208 233.207C148.112 233.484 147.954 233.736 147.746 233.944C147.539 234.151 147.287 234.309 147.01 234.406C146.732 234.502 146.437 234.535 146.145 234.501H132.597C132.309 234.534 132.017 234.502 131.743 234.407C131.468 234.313 131.218 234.158 131.012 233.955C130.805 233.751 130.646 233.504 130.547 233.231C130.448 232.958 130.411 232.667 130.44 232.378V232.378ZM129.26 252.836C129.26 247.247 134.213 242.672 140.179 242.672C145.898 242.672 150.992 247.247 150.992 252.836C150.992 258.425 145.898 263 140.061 263C137.288 263.07 134.601 262.04 132.584 260.136C130.567 258.232 129.385 255.608 129.296 252.836H129.26Z"/><path fill="#297880" d="M415.031 97.0748V95.3415C415.031 86.4156 426.327 86.0265 426.327 79.6711C426.327 76.912 424.075 75.1079 420.738 75.1079C417.083 75.1079 414.771 77.1006 414.771 79.9305V80.638C414.771 81.3454 414.382 81.6638 413.675 81.6638L406.812 81.4044C406.164 81.4044 405.716 81.086 405.716 80.638V79.9305C405.716 72.1601 411.883 66.8305 420.938 66.8305C429.793 66.8305 435.512 71.8418 435.512 79.3527C435.512 89.9648 424.016 90.0709 424.016 95.8603V97.0395C424.033 97.1871 424.016 97.3368 423.967 97.4771C423.918 97.6174 423.838 97.7447 423.732 97.8493C423.626 97.9538 423.498 98.033 423.357 98.0806C423.216 98.1282 423.067 98.1432 422.919 98.1242H416.116C415.972 98.1425 415.826 98.1283 415.688 98.0826C415.551 98.0368 415.425 97.9608 415.321 97.86C415.217 97.7593 415.137 97.6364 415.087 97.5005C415.036 97.3646 415.017 97.2191 415.031 97.0748V97.0748ZM414.453 107.416C414.377 106.313 414.635 105.213 415.193 104.259C415.751 103.305 416.582 102.541 417.58 102.066C418.578 101.591 419.696 101.428 420.788 101.597C421.88 101.765 422.896 102.259 423.704 103.013C424.512 103.767 425.074 104.747 425.318 105.825C425.561 106.903 425.475 108.029 425.07 109.057C424.664 110.085 423.959 110.968 423.046 111.59C422.132 112.212 421.053 112.545 419.948 112.545C419.25 112.57 418.554 112.457 417.9 112.213C417.246 111.969 416.646 111.597 416.136 111.121C415.625 110.644 415.214 110.072 414.925 109.436C414.636 108.8 414.476 108.114 414.453 107.416Z"/><path stroke="#263238" stroke-miterlimit="10" d="M83.9001 335.539V333.358C83.9001 322.109 98.1438 321.625 98.1438 313.607C98.1438 310.129 95.314 307.865 91.0691 307.865C86.4588 307.865 83.5464 310.377 83.5464 313.938V314.822C83.5464 315.718 83.063 316.119 82.1668 316.119L73.5121 315.801C72.6985 315.801 72.1326 315.388 72.1326 314.822V313.938C72.1326 304.151 79.9029 297.43 91.3168 297.43C102.483 297.43 109.676 303.738 109.676 313.206C109.676 326.637 95.196 326.719 95.196 334.089V335.539C95.2189 335.726 95.199 335.915 95.1378 336.093C95.0765 336.271 94.9756 336.432 94.8426 336.565C94.7097 336.698 94.5481 336.799 94.3703 336.86C94.1925 336.921 94.0031 336.941 93.8165 336.919H85.2561C85.0713 336.938 84.8846 336.915 84.7098 336.852C84.535 336.789 84.3766 336.687 84.2464 336.555C84.1161 336.422 84.0174 336.262 83.9574 336.086C83.8975 335.91 83.8779 335.723 83.9001 335.539V335.539ZM83.1691 348.568C83.0767 347.179 83.4048 345.794 84.1105 344.594C84.8161 343.394 85.8668 342.434 87.1256 341.839C88.3844 341.245 89.7931 341.043 91.1683 341.26C92.5435 341.477 93.8214 342.103 94.8358 343.057C95.8502 344.01 96.554 345.247 96.8556 346.606C97.1572 347.966 97.0426 349.384 96.5268 350.677C96.0109 351.97 95.1177 353.078 93.9635 353.857C92.8092 354.635 91.4473 355.048 90.0551 355.041C88.2806 355.099 86.556 354.449 85.2603 353.235C83.9646 352.021 83.204 350.343 83.1455 348.568H83.1691Z"/><path fill="#263238" d="M192.378 132V130.503C192.378 122.768 202.177 122.426 202.177 116.919C202.177 114.561 200.231 112.969 197.331 112.969C194.159 112.969 192.154 114.691 192.154 117.143V117.756C192.154 118.37 191.824 118.641 191.211 118.641L185.316 118.417C184.761 118.417 184.372 118.146 184.372 117.756V117.143C184.372 110.411 189.714 105.788 197.555 105.788C205.396 105.788 210.065 110.128 210.065 116.636C210.065 125.881 200.102 125.94 200.102 130.998V132C200.117 132.128 200.103 132.257 200.061 132.378C200.019 132.5 199.95 132.61 199.859 132.701C199.768 132.792 199.658 132.861 199.537 132.903C199.415 132.945 199.286 132.959 199.158 132.943H193.263C193.14 132.949 193.017 132.929 192.903 132.882C192.789 132.836 192.687 132.766 192.603 132.676C192.519 132.586 192.455 132.48 192.416 132.363C192.378 132.246 192.365 132.122 192.378 132V132ZM191.883 140.961C191.831 140.019 192.063 139.083 192.549 138.274C193.035 137.465 193.752 136.821 194.608 136.424C195.464 136.026 196.419 135.895 197.35 136.047C198.282 136.199 199.146 136.626 199.832 137.274C200.518 137.922 200.993 138.761 201.197 139.682C201.402 140.604 201.324 141.565 200.976 142.442C200.628 143.319 200.025 144.071 199.245 144.602C198.465 145.133 197.543 145.417 196.6 145.419C195.382 145.46 194.197 145.016 193.306 144.185C192.416 143.354 191.891 142.203 191.848 140.985L191.883 140.961Z"/><path stroke="#263238" stroke-miterlimit="10" d="M366.888 455.254V453.757C366.888 446.022 376.686 445.692 376.686 440.174C376.686 437.815 374.74 436.224 371.84 436.224C368.668 436.224 366.664 437.945 366.664 440.398V441.011C366.664 441.624 366.333 441.907 365.72 441.907L359.825 441.683C359.27 441.683 358.881 441.4 358.881 441.011V440.398C358.881 433.665 364.223 429.043 372.064 429.043C379.905 429.043 384.704 433.382 384.704 439.902C384.704 449.135 374.74 449.194 374.74 454.252V455.254C374.755 455.382 374.741 455.512 374.699 455.634C374.657 455.756 374.588 455.866 374.498 455.958C374.407 456.05 374.297 456.12 374.176 456.163C374.055 456.207 373.925 456.223 373.797 456.21H367.902C367.768 456.235 367.63 456.228 367.5 456.19C367.37 456.152 367.25 456.084 367.151 455.99C367.052 455.897 366.977 455.782 366.931 455.654C366.885 455.526 366.87 455.389 366.888 455.254V455.254ZM366.392 464.216C366.34 463.274 366.572 462.337 367.058 461.529C367.544 460.72 368.261 460.075 369.117 459.678C369.973 459.281 370.928 459.149 371.86 459.301C372.791 459.453 373.655 459.88 374.341 460.528C375.027 461.176 375.503 462.015 375.707 462.937C375.911 463.858 375.834 464.819 375.485 465.696C375.137 466.573 374.534 467.326 373.754 467.856C372.974 468.387 372.052 468.671 371.109 468.673C369.895 468.701 368.719 468.249 367.838 467.414C366.957 466.579 366.441 465.429 366.404 464.216H366.392Z"/><path fill="#263238" d="M320.725 328.028C320.642 327.78 320.56 327.533 320.465 327.285C320.371 327.038 320.3 326.778 320.206 326.53C320.111 326.283 320.041 326.035 319.946 325.788C319.852 325.54 319.781 325.281 319.687 325.033C319.593 324.785 319.522 324.538 319.428 324.29C319.333 324.043 319.263 323.783 319.168 323.536L318.909 322.793C318.826 322.533 318.732 322.286 318.649 322.038L318.39 321.295C318.307 321.036 318.213 320.788 318.131 320.541L317.871 319.798C317.789 319.538 317.694 319.291 317.612 319.043L317.364 318.253C317.282 317.994 317.187 317.746 317.105 317.498L316.834 316.756C316.751 316.496 316.668 316.249 316.574 316.001C316.48 315.753 316.409 315.506 316.315 315.258C316.22 315.011 316.15 314.751 316.055 314.504C315.961 314.256 315.89 314.008 315.796 313.761C311.952 302.064 300.067 293.48 286.99 293.48C274.315 293.48 263.29 300.861 258.691 311.261C258.573 311.497 258.467 311.744 258.361 311.98L258.043 312.711C257.925 312.947 257.819 313.183 257.713 313.431C257.607 313.678 257.489 313.914 257.383 314.15L257.064 314.869C256.946 315.117 256.84 315.352 256.734 315.6C256.628 315.848 256.51 316.072 256.404 316.319C256.298 316.567 256.18 316.791 256.074 317.039L255.755 317.758C255.637 317.994 255.531 318.241 255.425 318.477C255.319 318.713 255.201 318.961 255.095 319.196L254.777 319.927C254.659 320.163 254.553 320.399 254.447 320.647C254.34 320.894 254.223 321.13 254.116 321.366L253.798 322.085C253.68 322.333 253.574 322.569 253.468 322.816C253.362 323.064 253.244 323.288 253.138 323.536L252.819 324.255C252.701 324.491 252.595 324.738 252.489 324.974C252.383 325.21 252.265 325.458 252.159 325.705C250.136 330.013 249.097 334.718 249.117 339.477C249.117 358.461 265.507 373.978 285.776 373.978C305.608 373.978 322.859 358.461 322.859 339.477C322.855 335.858 322.221 332.267 320.984 328.865C320.901 328.523 320.819 328.276 320.725 328.028Z"/><path fill="#263238" d="M292.674 66.8659C231.867 66.8659 190.468 102.652 190.468 154.84V159.556C190.479 160.335 190.691 161.099 191.083 161.772C191.476 162.446 192.036 163.006 192.708 163.4C192.963 163.645 193.239 163.866 193.534 164.06C193.789 164.309 194.07 164.53 194.371 164.721C194.626 164.969 194.907 165.19 195.208 165.381C195.461 165.632 195.742 165.853 196.045 166.041C196.297 166.289 196.573 166.511 196.871 166.702C197.126 166.954 197.406 167.179 197.708 167.374C197.966 167.619 198.247 167.84 198.545 168.034C198.801 168.282 199.082 168.503 199.382 168.694C199.634 168.942 199.911 169.163 200.207 169.355C200.484 169.622 200.789 169.859 201.115 170.062C201.356 170.281 201.612 170.482 201.882 170.663C202.14 170.908 202.421 171.129 202.719 171.324C202.973 171.568 203.25 171.789 203.544 171.984C203.803 172.229 204.083 172.45 204.382 172.644C204.638 172.892 204.918 173.113 205.219 173.305C205.471 173.552 205.747 173.773 206.044 173.965C206.3 174.213 206.581 174.434 206.881 174.625C207.133 174.873 207.41 175.094 207.707 175.285C207.965 175.53 208.245 175.751 208.544 175.946C208.796 176.193 209.072 176.415 209.369 176.606C210.732 177.805 212.509 178.423 214.321 178.328L252.242 179.743C256.145 179.743 258.267 177.974 258.267 174.071V170.18C258.267 154.58 271.025 143.603 291.282 143.603C309.712 143.603 322.116 153.519 322.116 168.765C322.117 170.502 321.951 172.236 321.621 173.941C302.59 198.891 253.055 209.892 253.055 258.319V269.968C253.055 274.685 255.638 277.291 260.389 277.291H306.045C310.761 277.291 313.379 274.708 313.379 269.968V262.198C313.379 222.957 390.576 222.521 390.576 150.937C390.576 100.494 352.184 66.8659 292.674 66.8659Z"/><path fill="#297880" stroke="#297880" stroke-miterlimit="10" d="M252.997 269.992V258.342C252.997 198.396 328.896 195.849 328.896 153.118C328.896 134.571 313.804 122.461 291.377 122.461C266.793 122.461 251.287 135.832 251.287 154.804V159.521C251.287 164.237 248.693 166.43 243.953 166.43L197.803 164.697C193.499 164.697 190.48 162.539 190.48 159.521V154.804C190.48 102.617 231.879 66.8305 292.686 66.8305C352.196 66.8305 390.552 100.459 390.552 150.925C390.552 222.509 313.356 222.945 313.356 262.186V269.957C313.356 274.673 310.762 277.279 306.022 277.279H260.331C255.579 277.314 252.997 274.732 252.997 269.992ZM249.118 339.477C249.118 320.505 265.932 304.976 286.201 304.976C305.609 304.976 322.859 320.505 322.859 339.477C322.859 358.449 305.574 373.919 285.776 373.919C265.484 373.919 249.118 358.402 249.118 339.477Z"/><path fill="#263238" d="M283.889 412.582C319.452 412.582 348.281 406.137 348.281 398.185C348.281 390.234 319.452 383.788 283.889 383.788C248.327 383.788 219.498 390.234 219.498 398.185C219.498 406.137 248.327 412.582 283.889 412.582Z"/><path fill="#fff" stroke="#263238" stroke-linecap="round" stroke-linejoin="round" d="M234.673 248.164L232.209 253.54C232.209 253.54 217.895 255.085 217.895 256.158C217.895 257.231 218.048 264.624 218.826 264.931C219.418 265.161 220.074 265.161 220.665 264.931L241.748 259.542L243.753 250.003L234.673 248.164Z"/><path fill="#fff" d="M230.664 257.773C228.046 259.918 225.222 261.798 222.233 263.386C218.826 264.919 218.696 267.242 219.781 267.242C220.866 267.242 230.487 263.209 230.487 263.209C230.487 263.209 239.224 260.922 240.486 260.226C241.748 259.53 241.889 255.663 241.889 255.663"/><path stroke="#263238" stroke-linecap="round" stroke-linejoin="round" d="M230.664 257.773C228.046 259.918 225.222 261.798 222.233 263.386C218.826 264.919 218.696 267.242 219.781 267.242C220.866 267.242 230.487 263.209 230.487 263.209C230.487 263.209 239.224 260.922 240.486 260.226C241.748 259.53 241.889 255.663 241.889 255.663"/><path fill="#7D7D7D" stroke="#263238" stroke-linecap="round" stroke-linejoin="round" d="M247.266 144.85L238.47 212.271L232.351 248.777L245.934 251.984L256.063 208.805L260.862 181.626L247.266 144.85Z"/><path fill="#fff" stroke="#263238" stroke-linecap="round" stroke-linejoin="round" d="M318.249 96.0342L312.884 95.1853L301.895 91.023L301.494 104.076L318.532 105.644L318.249 96.0342Z"/><path fill="#7D7D7D" stroke="#263238" stroke-linecap="round" stroke-linejoin="round" d="M255.532 335.123C251.533 339.785 247.798 344.667 244.342 349.744C239.802 356.677 241.406 364.129 247.007 366.004C252.608 367.879 259.788 362.797 261.663 358.8C263.538 354.803 262.996 352.68 265.92 348.683C268.844 344.686 271.249 340.689 270.188 335.359C269.127 330.029 258.409 331.397 255.532 335.123Z"/><path fill="#fff" stroke="#263238" stroke-linecap="round" stroke-linejoin="round" d="M261.121 359.802C260.743 359 260.307 358.151 259.788 357.243C255.508 349.709 247.997 350.31 243.281 351.713C240.18 358.045 241.948 364.342 247.03 366.04C252.112 367.738 258.668 363.587 261.121 359.802Z"/><path fill="#fff" stroke="#263238" stroke-linecap="round" stroke-linejoin="round" d="M259.789 357.243C258.197 359.602 256.063 366.04 247.797 363.375C245.492 362.783 243.43 361.484 241.901 359.661C242.08 361.099 242.657 362.458 243.568 363.585C244.478 364.712 245.686 365.563 247.054 366.04C252.643 367.903 259.836 362.832 261.71 358.835C263.585 354.838 263.043 352.716 265.967 348.718C268.891 344.721 271.297 340.724 270.235 335.394C270.235 341.785 267.877 342.846 264.906 346.313C261.935 349.78 261.392 354.838 259.789 357.243Z"/><path fill="#7D7D7D" stroke="#263238" stroke-linecap="round" stroke-linejoin="round" d="M334.167 335.123C338.165 339.785 341.901 344.667 345.357 349.744C349.896 356.677 348.293 364.129 342.692 366.004C337.091 367.879 329.91 362.797 328.036 358.8C326.161 354.803 326.703 352.68 323.779 348.683C320.855 344.686 318.449 340.689 319.511 335.359C320.572 330.029 331.243 331.397 334.167 335.123Z"/><path fill="#fff" stroke="#263238" stroke-linecap="round" stroke-linejoin="round" d="M328.59 359.802C328.955 359 329.391 358.151 329.91 357.243C334.19 349.709 341.701 350.31 346.418 351.713C349.519 358.045 347.75 364.342 342.668 366.04C337.586 367.738 331.03 363.587 328.59 359.802Z"/><path fill="#fff" stroke="#263238" stroke-linecap="round" stroke-linejoin="round" d="M329.91 357.243C331.502 359.602 333.636 366.04 341.902 363.375C344.207 362.783 346.269 361.484 347.798 359.661C347.619 361.099 347.042 362.458 346.131 363.585C345.221 364.712 344.013 365.563 342.645 366.04C337.056 367.903 329.863 362.832 327.988 358.835C326.114 354.838 326.656 352.716 323.732 348.718C320.808 344.721 318.402 340.724 319.463 335.394C319.463 341.785 321.822 342.846 324.793 346.313C327.764 349.78 328.307 354.838 329.91 357.243Z"/><path fill="#263238" stroke="#263238" stroke-linecap="round" stroke-linejoin="round" d="M346.666 243.188C346.666 238.389 338.412 233.059 338.412 233.059C325.972 220.407 303.522 222.082 295.233 223.214C286.979 222.034 264.505 220.407 252.065 233.059C252.065 233.059 243.812 238.389 243.812 243.188C243.812 247.987 254.211 334.593 254.211 334.593C254.211 334.593 253.94 339.12 261.404 339.651C268.868 340.182 272.016 335.925 272.016 335.925L274.952 262.643C274.952 262.643 286.944 254.106 289.101 253.847C289.88 253.741 290.894 253.576 292.026 253.434V253.576C294.137 253.135 296.317 253.135 298.428 253.576V253.434C299.607 253.576 300.562 253.741 301.352 253.847C303.487 254.106 315.502 262.643 315.502 262.643L318.438 335.925C318.438 335.925 321.633 340.182 329.05 339.651C336.466 339.12 336.242 334.593 336.242 334.593C336.242 334.593 346.666 247.987 346.666 243.188Z"/><path stroke="#707070" stroke-linecap="round" stroke-linejoin="round" d="M315.49 262.643C315.49 262.643 313.886 245.051 321.621 238.389"/><path stroke="#707070" stroke-linecap="round" stroke-linejoin="round" d="M274.987 262.643C274.987 262.643 275.789 247.987 274.186 242.657C272.582 237.328 269.917 235.193 269.917 235.193"/><path stroke="#707070" stroke-linecap="round" stroke-linejoin="round" d="M284.845 227.73C284.845 227.73 293.37 237.587 294.973 245.853"/><path stroke="#707070" stroke-linecap="round" stroke-linejoin="round" d="M303.498 228.296C303.498 228.296 298.699 233.625 298.169 237.622"/><path fill="#297880" stroke="#263238" stroke-linecap="round" stroke-linejoin="round" d="M291.507 124.604C291.507 124.604 283.783 123.531 281.119 126.196C278.454 128.861 269.386 138.683 269.386 138.683L274.185 223.426C274.185 223.426 285.116 227.694 294.443 227.694C303.769 227.694 314.429 224.228 316.846 222.365C319.263 220.502 317.117 129.627 317.117 129.627C317.117 129.627 297.32 123.802 291.507 124.604Z"/><path fill="#7D7D7D" stroke="#263238" stroke-linecap="round" stroke-linejoin="round" d="M305.633 126.467C309.69 125.851 313.781 125.493 317.884 125.394C323.213 125.394 328.496 125.665 328.496 125.665L341.82 112.872L315.007 106.741L317.141 94.4896C317.141 94.4896 336.856 93.1572 346.713 95.0202C356.57 96.8832 372.029 101.682 372.83 101.682C373.632 101.682 374.693 104.618 373.892 106.741C373.09 108.863 348.022 136.596 340.534 143.788C335.637 148.588 331.011 153.659 326.68 158.975L323.26 218.403C323.26 218.403 332.057 223.202 333.66 224.794C335.264 226.385 337.127 232.788 337.127 232.788C337.127 232.788 320.867 226.126 316.598 225.595C312.33 225.065 309.677 224.794 308.875 223.237C308.073 221.681 301.411 150.486 301.411 150.486L301.683 127.835C301.683 127.835 301.635 126.467 305.633 126.467Z"/><path stroke="#263238" stroke-linecap="round" stroke-linejoin="round" d="M321.621 162.973L307.224 164.836L308.557 170.165L315.761 172.028L322.683 168.833L321.621 162.973Z"/><path stroke="#263238" stroke-linecap="round" stroke-linejoin="round" d="M329.875 130.995L326.68 158.975L334.945 135.263"/><path stroke="#263238" stroke-linecap="round" stroke-linejoin="round" d="M341.866 112.872C341.866 112.872 348.528 114.204 358.657 110.207"/><path stroke="#263238" stroke-linecap="round" stroke-linejoin="round" d="M348.8 114.735C353.176 114.857 357.553 114.501 361.853 113.674"/><path fill="#fff" stroke="#263238" stroke-linecap="round" stroke-linejoin="round" d="M282.451 124.333L283.783 143.788C284.998 145.386 286.571 146.676 288.375 147.555C290.179 148.433 292.165 148.876 294.171 148.847C300.833 148.587 301.635 143.788 301.635 143.788V127.8L282.451 124.333Z"/><path fill="#7D7D7D" stroke="#263238" stroke-linecap="round" stroke-linejoin="round" d="M301.895 134.462L301.364 150.474L306.965 141.678C306.965 141.678 313.096 149.401 314.688 149.142C316.28 148.882 313.627 145.675 313.096 142.751C312.566 139.827 308.026 129.415 307.496 126.491C306.965 123.567 301.895 123.024 301.6 124.357C301.452 125.507 301.452 126.672 301.6 127.823L301.895 134.462Z"/><path fill="#7D7D7D" stroke="#263238" stroke-linecap="round" stroke-linejoin="round" d="M283.512 148.847C283.512 148.847 284.574 223.461 281.909 224.31C279.244 225.159 268.585 225.383 261.864 228.579C255.143 231.774 252.007 233.106 252.007 233.106C252.007 233.106 255.202 225.383 258.94 221.917C261.424 219.684 264.201 217.799 267.194 216.316L260.272 180.612C260.272 180.612 247.479 146.76 247.208 144.897C246.936 143.034 271.462 129.179 276.52 126.774C281.579 124.368 282.923 126.514 282.923 126.514L283.512 148.847Z"/><path fill="#7D7D7D" stroke="#263238" stroke-linecap="round" stroke-linejoin="round" d="M276.85 123.001C276.85 123.001 270.46 143.258 269.917 145.923C269.375 148.587 269.917 148.587 271.792 146.713C273.667 144.838 278.454 140.322 278.454 140.322L283.512 148.847L283.241 133.129V124.062C283.241 124.062 282.982 120.336 276.85 123.001Z"/><path stroke="#263238" stroke-linecap="round" stroke-linejoin="round" d="M264.328 166.71H280.046L279.787 173.101L272.853 175.495L264.057 173.101L264.328 166.71Z"/><path fill="#fff" stroke="#263238" stroke-linecap="round" stroke-linejoin="round" d="M307.495 96.6238C307.495 96.6238 311.221 112.872 312.023 115.49C312.825 118.107 307.767 128.554 306.128 130.948C305.504 131.986 304.646 132.864 303.622 133.511C302.598 134.158 301.437 134.556 300.232 134.674C298.369 134.674 288.24 131.219 285.835 129.615C283.43 128.012 281.048 126.149 281.048 126.149C279.914 126.666 278.655 126.841 277.423 126.652C276.192 126.464 275.042 125.92 274.115 125.088C270.919 122.152 266.651 118.685 267.712 116.291C268.229 115.117 269.094 114.13 270.191 113.463C271.288 112.797 272.563 112.483 273.843 112.565C276.779 112.565 275.718 112.294 275.718 112.294C275.718 112.294 270.389 104.571 270.389 98.4396C270.389 92.3082 281.838 87.8276 288.5 87.8276C293.106 88.0196 297.631 89.1048 301.824 91.023L307.495 96.6238Z"/><path stroke="#263238" stroke-linecap="round" stroke-linejoin="round" d="M298.169 102.743L302.968 111.811L298.169 115.006L296.035 112.341"/><path stroke="#263238" stroke-linecap="round" stroke-linejoin="round" d="M306.965 111.009C306.965 111.009 307.224 113.143 304.029 116.61"/><path fill="#263238" d="M293.11 106.08C293.11 107.33 292.568 108.344 291.931 108.344C291.294 108.344 290.752 107.33 290.752 106.08C290.752 104.83 291.294 103.816 291.931 103.816C292.568 103.816 293.11 104.83 293.11 106.08Z"/><path fill="#263238" d="M301.494 104.076C302.158 104.076 302.696 103.062 302.696 101.812C302.696 100.562 302.158 99.548 301.494 99.548C300.829 99.548 300.291 100.562 300.291 101.812C300.291 103.062 300.829 104.076 301.494 104.076Z"/><path fill="#263238" stroke="#263238" stroke-linecap="round" stroke-linejoin="round" d="M278.713 82.7574C278.713 82.7574 261.946 88.8888 261.392 96.6238C260.838 104.359 276.32 115.006 277.121 116.339C277.923 117.671 280.317 114.735 280.317 114.735C279.784 114.019 279.412 113.196 279.227 112.323C279.042 111.45 279.047 110.547 279.244 109.677C280.046 107.012 283.512 103.781 283.512 102.484C283.512 101.187 279.515 103.545 279.515 99.548C279.515 95.5508 289.372 93.1572 295.233 93.4166C301.093 93.676 306.163 103.545 310.431 98.7462C314.7 93.9472 308.557 92.6266 308.557 92.6266C308.557 92.6266 316.81 91.5536 316.81 87.297C316.81 83.0404 312.542 80.0926 310.679 80.0926C308.816 80.0926 303.758 83.2998 303.758 79.8332C303.758 76.3666 308.816 74.763 304.017 69.2212C299.218 63.6793 293.098 69.2212 293.098 71.3554C293.098 73.4896 291.495 77.475 290.434 77.475C289.372 77.475 286.165 72.6878 282.439 75.3526C281.319 76.2433 280.405 77.3668 279.762 78.6454C279.119 79.9239 278.761 81.3269 278.713 82.7574V82.7574Z"/><path stroke="#263238" stroke-linecap="round" stroke-linejoin="round" d="M285.646 103.286L294.171 100.079"/><path stroke="#263238" stroke-linecap="round" stroke-linejoin="round" d="M295.504 96.3526C295.341 95.5161 295.474 94.6489 295.881 93.9"/><path stroke="#fff" stroke-linecap="round" stroke-linejoin="round" d="M295.881 93.8764C296.482 92.6973 297.838 91.1763 300.833 89.9382"/></svg>