<svg width="167" height="150" viewBox="0 0 167 150" fill="none" xmlns="http://www.w3.org/2000/svg">
<path d="M131.05 83.5L100 108.333H58.3333V100H92.2083C92.962 99.9996 93.7015 99.7948 94.348 99.4074C94.9945 99.02 95.5238 98.4645 95.8795 97.8C96.2352 97.1356 96.4041 96.3871 96.3681 95.6342C96.3321 94.8814 96.0925 94.1525 95.675 93.525L88.275 82.425C86.7569 80.1401 84.6971 78.2663 82.279 76.9708C79.861 75.6752 77.1599 74.9982 74.4167 75H8.33333C6.1232 75 4.00358 75.878 2.44078 77.4408C0.877973 79.0036 0 81.1232 0 83.3333V133.333C0 137.754 1.75595 141.993 4.88155 145.118C8.00716 148.244 12.2464 150 16.6667 150H96.9917C100.555 150.001 104.077 149.24 107.323 147.768C110.568 146.296 113.461 144.148 115.808 141.467L166.667 83.3333L154.567 79.3C150.608 77.9804 146.382 77.6734 142.274 78.4071C138.166 79.1407 134.307 80.8917 131.05 83.5ZM143.817 36.5833C147.575 32.7083 149.9 27.35 149.9 21.4333C149.9 15.5167 147.575 10.1583 143.817 6.28333C141.916 4.29982 139.634 2.7208 137.108 1.64107C134.582 0.561329 131.864 0.00313864 129.117 5.36803e-07C129.117 5.36803e-07 118.75 -0.0250012 108.333 10.7167C97.9167 -0.0250012 87.55 5.36803e-07 87.55 5.36803e-07C84.8037 0.00349304 82.0863 0.561025 79.5604 1.63923C77.0346 2.71743 74.7523 4.29415 72.85 6.275C69.0917 10.1583 66.7667 15.5083 66.7667 21.425C66.7667 27.3417 69.0917 32.7083 72.85 36.575L108.333 75L143.817 36.5833Z" fill="#297880"/>
</svg>
