<svg width="142" height="150" viewBox="0 0 142 150" fill="none" xmlns="http://www.w3.org/2000/svg">
<path fill-rule="evenodd" clip-rule="evenodd" d="M10.8759 49.8911C10.9873 34.0333 17.325 18.8542 28.5229 7.62527L20.7887 0C14.2016 6.5319 8.97313 14.3036 5.40508 22.8666C1.83703 31.4296 0 40.6144 0 49.8911C0 59.1677 1.83703 68.3525 5.40508 76.9155C8.97313 85.4785 14.2016 93.2502 20.7887 99.7821L28.5229 92.1569C17.325 80.9279 10.9873 65.7488 10.8759 49.8911V49.8911ZM22.4227 49.8911C22.3946 56.3151 23.6523 62.6798 26.1218 68.6103C28.5913 74.5408 32.2226 79.9171 36.8018 84.4227L44.536 76.6884C40.9557 73.2435 38.1357 69.0877 36.2571 64.488C34.3247 59.8832 33.3294 54.9394 33.3294 49.9455C33.3294 44.9517 34.3247 40.0079 36.2571 35.403C38.1076 30.7566 40.9304 26.5597 44.536 23.0937L36.8018 15.3595C32.2422 19.8797 28.6238 25.2588 26.1557 31.186C23.6876 37.1131 22.4189 43.4706 22.4227 49.8911V49.8911ZM105.756 84.8584L98.0218 77.1242C101.617 73.6383 104.449 69.4553 106.301 64.8148C108.234 60.2101 109.229 55.2663 109.229 50.2723C109.229 45.2784 108.234 40.3345 106.301 35.7298C104.45 31.0834 101.627 26.8865 98.0218 23.4205L105.756 15.7952C110.31 20.3189 113.925 25.6989 116.391 31.6253C118.858 37.5518 120.128 43.9076 120.128 50.3268C120.128 56.746 118.858 63.1018 116.391 69.0283C113.925 74.9547 110.31 80.3347 105.756 84.8584V84.8584ZM120.571 0L112.837 7.7342C118.429 13.2385 122.871 19.8005 125.902 27.0381C128.934 34.2757 130.495 42.0442 130.495 49.8911C130.495 57.738 128.934 65.5064 125.902 72.744C122.871 79.9816 118.429 86.5436 112.837 92.0479L120.571 99.7821C127.158 93.2502 132.386 85.4785 135.954 76.9155C139.523 68.3525 141.36 59.1677 141.36 49.8911C141.36 40.6144 139.523 31.4296 135.954 22.8666C132.386 14.3036 127.158 6.5319 120.571 0V0ZM87.0741 48.2571C87.4455 52.0171 86.5024 55.7896 84.4053 58.9325C83.501 59.8531 82.5167 60.6915 81.4641 61.4379L118.937 145.643L108.915 150L100.527 131.155H40.1787L31.7909 150L21.7691 145.643L59.2419 61.4379C56.9824 59.1475 55.4391 56.2485 54.8007 53.0952C54.1623 49.9418 54.4564 46.6708 55.6471 43.6819C56.9213 40.6748 59.0403 38.1017 61.7473 36.2745C64.0942 34.7092 66.8063 33.7782 69.6197 33.572C72.4331 33.3659 75.252 33.8916 77.8019 35.098C80.3519 36.3045 82.5461 38.1505 84.1709 40.4565C85.7958 42.7625 86.796 45.4499 87.0741 48.2571V48.2571ZM69.6994 44.5534C68.6667 44.7967 67.7231 45.3251 66.9761 46.0784C66.3907 46.7699 65.9798 47.5918 65.7778 48.4749C65.4521 49.5028 65.4521 50.6062 65.7778 51.634C66.2135 52.6144 66.8889 53.4858 67.7386 54.1394C68.6563 54.7037 69.7114 55.0052 70.7887 55.0109C72.2245 54.983 73.5937 54.4002 74.6092 53.3848C75.6246 52.3693 76.2074 51.0001 76.2353 49.5643C76.2296 48.4869 75.9282 47.4319 75.3639 46.5142C74.7096 45.6576 73.8471 44.9826 72.8584 44.5534C71.8306 44.2277 70.7272 44.2277 69.6994 44.5534V44.5534ZM72.2048 66.8845H69.2636L59.7865 88.0174H81.573L72.2048 66.8845V66.8845ZM96.17 120.697L86.475 98.9107H55.1024L45.4074 120.697H96.17Z" fill="#297880"/>
</svg>
