<svg width="174" height="150" viewBox="0 0 174 150" fill="none" xmlns="http://www.w3.org/2000/svg">
<path d="M63.1052 86.7697C80.5313 86.7697 94.6579 72.6432 94.6579 55.2171C94.6579 37.7911 80.5313 23.6645 63.1052 23.6645C45.6792 23.6645 31.5526 37.7911 31.5526 55.2171C31.5526 72.6432 45.6792 86.7697 63.1052 86.7697Z" fill="#297880"/>
<path d="M63.1053 102.546C42.0439 102.546 0 113.116 0 134.099V149.875H126.211V134.099C126.211 113.116 84.1666 102.546 63.1053 102.546ZM124.317 26.5042L111.065 39.8352C117.691 49.1432 117.691 61.2121 111.065 70.5201L124.317 83.8511C140.251 67.917 140.251 43.8582 124.317 26.5042ZM150.427 0L137.569 12.8577C159.42 36.6799 159.42 72.4922 137.569 97.5765L150.427 110.434C181.191 79.7493 181.27 31.947 150.427 0Z" fill="#297880"/>
</svg>
